/* XPM */
static char *_68e7d4455fd47b7bab514af0ef40ec76y9HRjJ5qG31Q4Sx[] = {
/* columns rows colors chars-per-pixel */
"64 64 256 2 ",
"   c #090206",
".  c #16090B",
"X  c #1B0D13",
"o  c #1D1413",
"O  c #230D0B",
"+  c #390600",
"@  c #291706",
"#  c #371803",
"$  c #291617",
"%  c #371A17",
"&  c #332810",
"*  c #39251C",
"=  c #391B22",
"-  c #362A26",
";  c #332D24",
":  c #383534",
">  c #343338",
",  c #490500",
"<  c #570A01",
"1  c #491503",
"2  c #591701",
"3  c #551F13",
"4  c #691003",
"5  c #661802",
"6  c #761B02",
"7  c #4F2F0E",
"8  c #592601",
"9  c #582518",
"0  c #672501",
"q  c #782602",
"w  c #783701",
"e  c #6D2F14",
"r  c #462321",
"t  c #4A282A",
"y  c #542C27",
"u  c #51372F",
"i  c #583628",
"p  c #443B33",
"a  c #653A2A",
"s  c #77372A",
"d  c #673C38",
"f  c #764604",
"g  c #72540F",
"h  c #726117",
"j  c #4E4333",
"k  c #564537",
"l  c #694837",
"z  c #714F32",
"x  c #774A3A",
"c  c #3B3A40",
"v  c #553D42",
"b  c #4A4546",
"n  c #554C47",
"m  c #56504F",
"M  c #5A5758",
"N  c #665847",
"B  c #6C534F",
"V  c #7A694D",
"C  c #6D6865",
"Z  c #861D00",
"A  c #872901",
"S  c #962D01",
"D  c #883802",
"F  c #993803",
"G  c #88391A",
"H  c #913617",
"J  c #A53906",
"K  c #A63B17",
"L  c #AD3813",
"P  c #873823",
"I  c #884704",
"U  c #944401",
"Y  c #9A4703",
"T  c #8A5708",
"R  c #9A5504",
"E  c #945215",
"W  c #A74905",
"Q  c #B44908",
"!  c #A85606",
"~  c #B65709",
"^  c #A74716",
"/  c #B44818",
"(  c #A85714",
")  c #B85617",
"_  c #8D6B0D",
"`  c #B7660A",
"'  c #B16E0E",
"]  c #A9651B",
"[  c #B76518",
"{  c #924E2D",
"}  c #865538",
"|  c #AB4728",
" . c #B64B29",
".. c #AB522B",
"X. c #B95826",
"o. c #A85C39",
"O. c #B75838",
"+. c #8E7331",
"@. c #B66929",
"#. c #B8772A",
"$. c #B06C30",
"%. c #B77537",
"&. c #C45A12",
"*. c #CA6716",
"=. c #CF6F12",
"-. c #C9751A",
";. c #E07E0F",
":. c #CA582C",
">. c #C86B27",
",. c #D46827",
"<. c #C87627",
"1. c #D76A3B",
"2. c #CB7131",
"3. c #D87736",
"4. c #E47A2F",
"5. c #845A47",
"6. c #976745",
"7. c #8F714F",
"8. c #A76B44",
"9. c #B3614E",
"0. c #B97844",
"q. c #A77A52",
"w. c #B17150",
"e. c #8E7967",
"r. c #C76746",
"t. c #CE744F",
"y. c #C9705D",
"u. c #E67C4A",
"i. c #A28119",
"p. c #B1882C",
"a. c #BA8538",
"s. c #D78E14",
"d. c #FB9C0C",
"f. c #E6881A",
"g. c #EF9218",
"h. c #F99818",
"j. c #FC9C1B",
"k. c #FDA30C",
"l. c #F7A808",
"z. c #ECAF10",
"x. c #FBA616",
"c. c #F9B718",
"v. c #D28F2E",
"b. c #C98938",
"n. c #D98736",
"m. c #E78727",
"M. c #EB9529",
"N. c #F99827",
"B. c #EB8D35",
"V. c #F89837",
"C. c #D2A834",
"Z. c #FAA525",
"A. c #F6B928",
"S. c #EFAE31",
"D. c #E8A839",
"F. c #F7B937",
"G. c #F9CC1A",
"H. c #F8C727",
"J. c #F5CD2F",
"K. c #FAC838",
"L. c #FED539",
"P. c #FBE73E",
"I. c #B78B4D",
"U. c #B1974A",
"Y. c #A98558",
"T. c #B68756",
"R. c #AE9B5A",
"E. c #BD9356",
"W. c #95866E",
"Q. c #AC8E6D",
"!. c #BA9567",
"~. c #C78647",
"^. c #CE8F4F",
"/. c #D4894B",
"(. c #D0904F",
"). c #D8974A",
"_. c #C59B58",
"`. c #D99B56",
"'. c #E78848",
"]. c #EF944E",
"[. c #E29B52",
"{. c #D7A756",
"}. c #D2AA50",
"|. c #E8A846",
" X c #FBA249",
".X c #ECB647",
"XX c #F8B845",
"oX c #E7A95A",
"OX c #F8A956",
"+X c #E6B757",
"@X c #EDB55C",
"#X c #F7B659",
"$X c #F2B95F",
"%X c #C59865",
"&X c #C99668",
"*X c #E6996D",
"=X c #D6A968",
"-X c #D1AB73",
";X c #E9AE6E",
":X c #EAB665",
">X c #F0B562",
",X c #F3BE62",
"<X c #F1BE6E",
"1X c #FEBA69",
"2X c #FCBC74",
"3X c #D6C55C",
"4X c #FAC848",
"5X c #FBD749",
"6X c #EACC52",
"7X c #FACA59",
"8X c #FCD857",
"9X c #FDE946",
"0X c #FEE44C",
"qX c #FFF249",
"wX c #FFE454",
"eX c #FDEB56",
"rX c #FFE45B",
"tX c #FDF155",
"yX c #EACB6E",
"uX c #FAC868",
"iX c #FED669",
"pX c #FAC976",
"aX c #FDD877",
"sX c #FDE767",
"dX c #FBF06F",
"fX c #FDE877",
"gX c #8F8F8F",
"hX c #B6A288",
"jX c #B6B5B3",
"kX c #CDB690",
"lX c #DFBD99",
"zX c #D9C798",
"xX c #EBC885",
"cX c #F4CA8C",
"vX c #FED886",
"bX c #E6CA99",
"nX c #F9DA97",
"mX c #FEE787",
"MX c #FEF487",
"NX c #FEE798",
"BX c #FDF396",
"VX c #D9C8AA",
"CX c #F8DCA8",
"ZX c #EEDBB0",
"AX c #E4D6B8",
"SX c #FFE9A6",
"DX c #F9EEAD",
"FX c #FCE7B6",
"GX c #FEF6BA",
"HX c #DFD3C5",
"JX c #E4DDCB",
"KX c #F5E9C9",
"LX c #FFF5C7",
"PX c #F2EBD5",
"IX c #F7F5EA",
"UX c #FAFDFD",
/* pixels */
"M N KXIXIXIXIXIXIXIXIXPXPXPXIXjXM b $ n N N p gXJX- p n n n n M M M ; p p p p p p : : : : t * M n jXIXIXIXIXIXIXIXIXPXIXIXIXJXM ",
"p VXxXnXFXnXCXnXnXnXnXxXxXxXxX&Xi O 7.ZXVX-Xe.M gX- kXAXAXAXVXq.$ : VXAXAXAXAXAXAXAXAXAXAXzX&Xu p kXxXbXbXlXnXnXnXnXnXnXLXKX-Xx ",
"n KXoXoXuX,XuX,X$X$X@X`.oX,X@X~.a % %X-XY.T.T.x - m -XQ.kXkXQ.W.C gXzXhXkXkXkXlX-X-X%X%X%XE.8.a W.ZXoX@X@X~.(.,X,X,X,X,XnXbX%.s ",
"n PXnXaXuX>XoX@X$X>X@XoX,XaXuX(.a $ q.T.&X%XE.Y.B - * * * * & ; ; ; ; $ ; * $ V -X!.!.E.T.q.} i W.LX<XuX,XoX%.8.[.,X,X,X<XoXo.s ",
"n PXnXaX,X$X0.`.$X,XaXaXaXaX,X(.a O } q.&Xk t @ hXAXKXKXHXJXJXHXJXJXJXJXAXPXJXe.@ t ; Q.7.i r % W.LX<X,X$X,X>X8.} 8.(.oXoX).o.s ",
"n PX<X,XuX@Xo.[.,X$XuXuX,X,X$X(.a   p k e.kXVXzXZXLXGXLXLXLXPXPXKXKXLXLXLXLXLXFXVXzXVXN @ ; ; . e.ZXoX@X$X$X$X>X6.r s o.o.o.o.i ",
"n PX=X~.(.0.~.(.(.>X$X@X@X>X$X(.l : N W.zXGXDXBXSXvXvX<X*X*X*X*X*X*X*X*X=X=X=XnXSXGXLXzXkXhXk - W.FX:XoXoXoXoX>XoXi % a a a i O ",
"n JXI.~.(.`.pX>X%.%.oX$X>X>X$X`.5.C kXLXSXNXvXb.#.b.b.( Y F F F F K S F F U U #.#.pXnXDXLXGXhXQ.V AX<X,X$XoX~.0.0.z O . u N N p ",
"n KX;X@X@X,X,X,XoX8.(.>X>X>X:X!.W.GXGXNX<X#.#.W S F S F F Y ^ Y ^ F K ^ L L / J J 2./.pXvXBXBXNXR.V kX,X:X0.s 6.Y.8.l r =XnXZX!.",
"n KXpX@X@X@X@X@X$XoX~.oXoXoX;X-XFXSX{.b.] A W / :.:. .O.O.O.$.....O.O.:.t.:.:.:.J J A ( b.).mXmXNXnX7.Y.~.6.w._.%XE.T.l T.=X-Xx ",
"p lX<X@X@X@X@X@X@X:X0.0.~.&XbXKXcX/.( W W ~ ,.:.X.r.y.9.P < , < < , < e w.t.r.2.:.,./ W D D oX,XaXmXNXY.V T.%XT.T.T.q.y } w.0.z ",
"* ~.oX@X@X@X@X@X@X>XoX0.&XbXFX&X$.F Q &.,.,.u.2.6 5 5 5 2 < 2 2 2 < 2 2 2 < 5 4 >.u.1.,.&.~ F U |.iXmXNXY.7.T.T.T.q.x a %XI.} x ",
"$ ~.oX@X@X@X@X@X:X@X@X<XnXCX=X$.X.u.].u.:.A F A A D D w D U Y Y I E E I D D D q D '.A J 3.B.,.W U v.uXmXNX+.7.T.T.q.x i %Xq.z r ",
"$ 0.`.@X>X>X>X>X>XoX>XcXCX^.] [ '.1.J S A S ( Y ( <.b.<.n.oX[.).[.oX[.b.#.#.] ( ! n.F D Q ) 4.3.W U #.iXmXNXY.7.6.q.} r 8.6.a % ",
"$ } } 8.8.o.8.8.8.8.-XFX`.<.[ B.2.A 6 F W ( ` ' D.4X4X4XiXpX1X2X1X1X1XaXiX7X7X7XD.! -.~ S A F 3.].W R #.pXmXxXh z } x % 6.} r O ",
"m r * r * * * = r V GX;Xt.@.n.W A D W [ |.|.|.D.rXrXwXsXaXb.w w w w ] aXfXsXrXrX5XD.D.D.<.Y F S 3.OX[ D p.aXfX3Xh j * . r * . > ",
"gXo   . . . . . j ZXcX@.X.u.) q F ` s.s.8XrXsXsXsXsXsXiX).E E.E.E.E.f p.mXsXsXrXrXrXwX4X.Xv.*.Q A >.'.[ U b.fXMXU.7   ; n M : - ",
". * l l d l d 5.kXSX/.X.t. .6 U ` M.F.0X0XwXsXsXsX3X6XyXT E GXDXSXSXh h =X3X6XsXsXtX9XtX8X4Xv.-.W A >.].>.R +XaX:X+.k &XbXKXQ.- ",
". } E.T.8.Y.!.kXGXI.F X.^ Z F -.D.4XwX0XP.tXrXsX3Xh f g 8 q.SXmXfXmX+.7 g f T }.6XeX9X9XwX5X4XS.-.W A @.2.! I iXiXyX7 %X=X-X5.t ",
"* =X_._.E.Y.kXFXCX^.^ J 6 S >.B.F.5XwXeXqXtXsX}.g yXnXnXCXnXBXMXdXfXnXCXnXvXyXg p.8XtX9X0XeXL.K.M.n.W 6 [ <.I $XaXpXg 7.&XY.x r ",
"p bX_._.!.-XFXFXo.F  ./ 6 ) n.M.5XtX0XtXeXrX}._ yXBXMXBXBXBXMXfXdXfXBXmXMXMXfXaXp.i.6XeXwXwX9X0XS.s.>.A >.OX( R |.mXyXg e.q.B r ",
"p bX_.!.Y.zXFX&X..L :./ A [ n.8X9X9X0XrXsX.Xp.U.MXdXdXfXmX}.U.U.U.U.}.fXsXsXsXfXaXp.i.8X8XrX0X0XwXM.-.F ~ ].'.U ' 7XiX_ V y r % ",
"p bX%XQ.-XLXcX{ L :.:.S A [ .X8X9XqXeXsX7X_ C.MXsXeXsXsX:X8 # # 1 + f :XiXdXsXsXdX.X_ ' 7XsXeX0XeXF.v.Y U [ 1X~ U |.sXC.h e.i O ",
"p bXQ.7.GXGXcX^ L 1./ Z ! v.8X0X9XqXrXC.T p.iXdXsXtX6Xb.f 8 8 8 2 0 0 w b.iXdXrXsXfX+Xf _ 6XwX9X0XwXD.-.A ! #X` ! v.7XfXg z %Xu ",
"p bXe.V LXDX~.^ Q :. .A ! D.wX9X9XqXrXC.f .XsXtXeXdX}.w 5 w f f I I w 0 w ^.iXsXdXfXvXf f 8XeX9XqX0X5Xv.F ! #Xv.! ! .XfXg z 6.i ",
"p bX7.V GXNX( Q 4.J S X.v.4XeX9X9X9XrXC.w +XrXtXtXsX}.2 w (.@X+X+X:X>X] 2 w p.}.}._.T.8 T 6XwXqXqXtXwXF.n.Y R uX-.W D.aXg z 6.u ",
"$ V V ZXGXxX( ) 3.S Z >..X0X9X9XqXP.wXC.w +XrX9XtXdX{.8 E 1XiXrXsXrXiX.XE 2 1 1 1 + , + T 7X8X9XtX5X0X4XM.Y I uX-.W |.aX:Xh ; B ",
"  n 7.FXDXpXW ~ 3.F S ~ 5XtX9X9XP.9X0XC.w ).dXtXtXrX+X#.] $XiX8X8X8XiXiX^.G 2 0 e 0 e 2 f 7XrX0X0X9X9XL.Z.W I 2X<.W #XaXaXp.@ B ",
"  p V SXNX^.Y '.X.q J f.K.L.L.L.P.qXwXC.0 I .X8XwXeXiXuXb.#.T T T T T T { P G G A H D w T .X8X5X0X9XJ.J.F.=.I ).OXW ' 7XaX+.@ v ",
"  j W.DXBXp.Y OXY 6 ~ N.c.z.c.H.H.L.wX8X_ 0 ] 7X8XwX5X8XfXuXp.I.%.a.a.a.0.0.y.O.@.).n.v.D.4X5X5XL.A.c.c.x.f.D ( 1XY ! iXiXi.# j ",
"c ; 7.DXvX#.! OX^ q &.N.x.z.z.z.c.c.L.rXC.w 0 ] .X4X5X5X5XiXmXBXBXmXMXBXBXNXNX<X' D.4X4X4XL.L.c.z.z.l.k.Z.m.D @.2X! ` #XiX+.@ B ",
"jX& 7.DX{.R !  X( q =.N.x.l.c.l.l.c.A.A.S.-.q 6 ( .X7X8X6X6XmXvXvXvXfXyXsX6XiX7XD.' s.A.H.A.c.c.z.l.l.k.Z.M.Y ] 1X! ! v.aX_ # gX",
"p ; V NXoX! W OX^ A ;.Z.x.l.l.l.k.l.c.z.x.M.! A 4 E :X+X+X:X<X;X;X<X+X6X5XL.L.K.K.s.! g.Z.z.c.l.l.l.l.l.h.N.W [ 1X! W n.aX_ # e.",
"b ; 7.BX{.Y W  XW A ;.N.x.x.k.k.k.k.l.x.c.j.m./ 6 5 2 8 8 8 2 8 0 2 f b.4XL.H.J.J.A.s.` s.Z.k.k.l.l.l.x.x.N.W ` 1X! W '.aX_ # e.",
"b & +.NXoX! ~ OX! q =.V.g.x.x.k.l.l.l.l.d.N. X'...q 2 2 2 5 5 5 5 2 5 q b.XXL.J.G.H.D.D =.Z.k.k.k.x.l.l.Z.M.U ] 1XW W  XaX_ # e.",
"b j +.NXuX` ! OX'.D J m.Z.x.k.k.x.l.l.x.x.M.B.'.t.E w q 5 6 6 6 q q 6 q A n.K.G.G.H.|.q -.N.x.x.k.k.l.x.M.~ U oX1X&.&. XpX+.@ e.",
"m j g vX7X` Y n.1X[ Z &.Z.k.k.k.d.k.x.Z.` w w w w D U ..^ / ^ Q ( ^ / K 6 U F.J.G.J.|.w -.N.d.k.k.d.k.Z.4.D ] vXOXQ *. X@Xg # m ",
"n l 7 +X#X` Y ~ #X~ Z &.N.d.x.d.d.k.Z.s.' `.{.}.{.oXt./ u.].V.V.B.V.].'.6 U S.H.G.J.|.0 ! N.d.k.d.d.k.h.m.D ] vXn.W &.B.).8 # b ",
"n e.7 =XXX=.~ ~ #X! q ) N.d.k.k.d.j.V.W ! vXfXdXsXmX/.A 3.].V.N.Z.g.V.B.A U F.G.G.J.{.8 U M.x.k.d.k.x.N.<.D %.vX3.W ~  X/.8 7 : ",
"n ZXY.f D.M.~ W XX#X..6 =.x.d.d.k.j.V.W R uX6XJ.J.K.|.<.Y <. XM.M.F.-.Y ` D.H.c.H.K.{.0 R f.j.d.d.j.x.s.F @.2XpX[ W *.B.w 6.Y.- ",
"j bX!.1 |.V.&.W #XiX/.5 &.j.j.k.k.x.V.! D b.4XH.G.H.4X#Xv.` R R R U @.n.D.4Xc.c.A.|.0.2 U M.j.d.d.j.h.f.D $.NX2X~ W ,.'.0 z q.u ",
"$ I.%X# @XOXQ W ' iXa.0 ` N.x.d.k.x.V.! 4 q ' K.H.H.K.F.uX).] #.$.] ).aXXXA.c.A.XX<.5 5 W N.j.j.j.h.N.f.w $.NX[.W J &.'.8 k x = ",
"O o.=X7 `.OX4.J R @X{.I ~ m.h.x.d.d.Z.=.D < 0 #..X4XF.F.7X7XfXMXfXfX7X.XA.A.A.XX2.q 4 A ~ N.N.g.N.N.N.` T _.NX@.S :.1.r.i N l = ",
". o.[.E.+ %.'.Q Y pXiX+XI ` M.g.x.j.h.M.>.D < 0 @.|.#X7X#X.X4XC.J.K..XD.F.S.|.#.6 4 A J m.N.g.Z.N.M.&.! vXvXpX<.Q :.K < i T.d = ",
"  a o.!.# 0.'.&.Y ).aXiXw D =.f.g.h.j.h.m.) A 6 2 E %.%.$.p.S.H.A.D.b.#.#.%.$.< < A S *.N.h.g.N.;.=.Y D vXBX>XY / :.G + N 5.i % ",
"  . % y l 8 /.,.W U |.pXb.q ! ;.f.g.h.j.N.m.&.F 5 < 2 < < D S.c.F..XD < 2 < < 6 q K *.N.g.j.N.f.=.>.( a.NX<X( W X.t., r 5.d r . ",
"M o > M C 7 %.'.,.D #.aXvX^.U *.m.N.h.h.h.N.4.) F 6 q 5 2 D D.F.S. XD < 5 6 4 6 F *.N.h.h.j.g.4.) @.=XSXnX<.S ) r.{ # B - - X ; ",
"gXgXFXIXPXe.e 2.B.*.D [.vXvXb.U ` m.M.h.h.h.N.4.>.F A 6 4 D b.<.<.>.q 2 q 6 A ^ ,.m.g.j.h.f.m.~ 2.`.SXCX[.W J 1.9.2 k ; ; ; ; C ",
"> VX=X=XpXxX7 { ].3.W Y #XvXvXb.U <.m.f.N.h.h.N.m.,.) ^ A q { I I G 5 q ^ ^ >.;.N.h.h.h.V.m.[ I _.nXnX2XW J :.r.e 1 kXzXzXzXkXj ",
"b JX_.o.(.:X%X1 o.].>.F W uXmXaXa.T ! *.f.g.h.g.N.m.m.'.X.< , , , , , ..'.B.M.N.g.N.N.M.<.R ] ;XvXBXpX( F :.t.H , Q._._._.=X7.i ",
"b PXxX~.{ ~.@Xq.e %.'.*.D ! >XvXSXxXT ( ) *.V.g.h.h.f.M.<.q < < < 2 5 @. XM.N.h.V.B.<.R I ~.xXSXNX2X@.^ 1.u.{ < a %XE.I.E.I.l t ",
"b PX;XoX(.{ ~.oX6.e ~.3.<.Y Y 2XvXNXSX`.$.( *.;.;.g.g.m.n.X.H P P G D n.V.N.N.f.-.[ E 0.;XSXSXnXoX] W X.r.O.s 9 bX=X_.I.E._.x t ",
"b AX_.(.:X{.{ { 8.7 E /./.2.Y F v.uXmXNXBXb.R Y W *.&.*.,.u.1.1.1.1.3.,.*.&.&.W ( E I.SXDXSXcX/.Y W X.u.O.P 9 e.xX=X_.I.I._.} t ",
"b KX<X@X@X,X`.z r y # { $.%.u.W D ` $XaXNXaXpXoX! ! W W Q / ^ ^ W W W ~ ~ ! ~ ( 2XNXNXSXnX=X$.F J 1.t.O.P 3 n N xX=X_.I.I._.} t ",
"n KX<X@X>X>X>X=X&Xl - # e o.u.3.W S Y ).oXaXvXmXaXuXvXvXvX%.%.%.%.$.#.vXvXmXuXaXaXaXpX>X~.( F ^ X.t.O.e 9 k   N xX=XE.I.I.I.5.t ",
"n KX<X>XoXoXoX>X<XoXq.t x 1 G '.1./ F Y U R oX+XuXaXaXvXvXnXNXnXnXnXNXaXaXuXuX7XC.C.b.R A F L :.u.P 2 9 e.l . p !.q.q.8.q.T.x t ",
"b FX<X{.8.w.&XoX@X@X(.8.-X5.+ G /.1.K K S F W Y W Y n.1X1X1X1X1X1X1X1XOXOXn.W W D D A S H K r.t.{ + l -X%X%Xi   t N u t 5.7.i . ",
"$ %X:X~.&XnX<XoX@X>X0.).oXOXz + w.9.O.O. .L S L S J F Q ) W ! ! ( ! W ~ Q J Q J / F K  .| ..y.9.1 % q.T.E.%Xq.$ W.-Xl u !.-X5.$ ",
"O w.oXoX,X<X,X@X@XoX8.).OXOX[.N . + x y.u.:.L L L J J S S J J F F F J F J J L K K K | r.y.} + r k 7.q.q.Y.Y.6.* x q.7.i i 5.d % ",
". 0.oX@X@X@X@X@X`.o.} ).OX[.r.d : B r 1 5 O.t.O.O.|  . . . .| ..| | | | | | | r.r.y.9.e 3 r B m O 5.q.q.7.} a $ d 6.7.t t t d = ",
"o 8.~././././.~.o.x 8.[.oX/.} $ . = B u i 9 9 e P w.y.y.y.9.w.w.w.y.9.y.9.9.9.s 2 3 1 d u C t $ . x 7.5.x l =   t d B t r y y $ ",
". y s o.o.o.o.} s 6.oX/.r.o.% .   O = u d N * r 9 9 9 9 3 9 9 9 3 9 9 9 9 9 9 y d k N B u u =     = d d t = o   = u = t t r $ . ",
"gXp $ % * % % % $ % y r % $   M gX> . o o X $ $ B $ O % O O O $ % O $ O O O $ C o $ X X X X   c gXc X = X .       .     X .   M ",
"UXjXc c > > > > > > > > > > c jXUXgX> > c c c c c m M M M M M jXUXjXM M m m m b c c c c c c c gXUXgX> > > > > > > > > > > c c jX"
};
