/* XPM */
static char *_a853d9fb02b412dac19b579ed35cdd1rMZgyZlZLmJc2dBL[] = {
/* columns rows colors chars-per-pixel */
"64 64 256 2 ",
"   c #EEB65D",
".  c #221015",
"X  c #060107",
"o  c #AA7F55",
"O  c #0D0408",
"+  c #F2B95F",
"@  c #B88D55",
"#  c #AE8351",
"$  c #11070A",
"%  c #010002",
"&  c #B18552",
"*  c #3B3A40",
"=  c #15090C",
"-  c #1B0D13",
";  c #090204",
":  c #B48A52",
">  c #1B0B0C",
",  c #AD8056",
"<  c #B48858",
"1  c #C49C5B",
"2  c #A87C52",
"3  c #F2BF61",
"4  c #BE9458",
"5  c #210F0F",
"6  c #47242B",
"7  c #A5784E",
"8  c #C99F5C",
"9  c #352019",
"0  c #926744",
"q  c #331920",
"w  c #B08355",
"e  c #AE8457",
"r  c #CBA45C",
"t  c #2A1816",
"y  c #BB9057",
"u  c #3F241F",
"i  c #B18756",
"p  c #B98858",
"a  c #F1B25C",
"s  c #321817",
"d  c #7D4F3B",
"f  c #343338",
"g  c #8E6247",
"h  c #986C49",
"j  c #502E27",
"k  c #5E3435",
"l  c #623938",
"z  c #B78C59",
"x  c #AC7E51",
"c  c #241718",
"v  c #A07547",
"b  c #C29856",
"n  c #9D724C",
"m  c #AA7F4D",
"M  c #9C6E51",
"N  c #160D0E",
"B  c #5D3D2C",
"V  c #B1874D",
"C  c #86573D",
"Z  c #A97B58",
"A  c #3C1C19",
"S  c #35241F",
"D  c #2D1E18",
"F  c #A27550",
"G  c #3E1D24",
"H  c #754639",
"J  c #8C633C",
"K  c #AF835D",
"L  c #673F3B",
"P  c #835C42",
"I  c #B68C60",
"U  c #A77B49",
"Y  c #93634C",
"T  c #A9815C",
"R  c #4F292D",
"E  c #BE9451",
"W  c #F7F5EA",
"Q  c #2A1210",
"!  c #6D4B36",
"~  c #624631",
"^  c #1C1312",
"/  c #492F21",
"(  c #BB905D",
")  c #3E2328",
"_  c #E8CD9C",
"`  c #EDAD5B",
"'  c #986C41",
"]  c #422E25",
"[  c #C49C66",
"{  c #56342A",
"}  c #73543D",
"|  c #C08E61",
" . c #EBB25A",
".. c #A37B53",
"X. c #765033",
"o. c #CBA666",
"O. c #B58359",
"+. c #524B48",
"@. c #403831",
"#. c #F7DA92",
"$. c #ECB865",
"%. c #63362B",
"&. c #462721",
"*. c #EEE4BE",
"=. c #F0BE6F",
"-. c #857C6D",
";. c #AC6B41",
":. c #6D3E37",
">. c #C59760",
",. c #DEBE85",
"<. c #3E332B",
"1. c #462021",
"2. c #E19E51",
"3. c #D0904F",
"4. c #4B3829",
"5. c #F0B562",
"6. c #875C4A",
"7. c #543C2A",
"8. c #805142",
"9. c #F7C568",
"0. c #2D101A",
"q. c #8F6C4C",
"w. c #C8A16B",
"e. c #E6A456",
"r. c #592F2B",
"t. c #D2AE6A",
"y. c #522222",
"u. c #774C41",
"i. c #C19565",
"p. c #552F34",
"a. c #B79268",
"s. c #986241",
"d. c #A27659",
"f. c #5A4939",
"g. c #D1A860",
"h. c #D2A76F",
"j. c #443E39",
"k. c #E0A658",
"l. c #F7F1DF",
"z. c #5D3322",
"x. c #693F2B",
"c. c #362E28",
"v. c #F8DE9F",
"b. c #E5D4B3",
"n. c #B0885E",
"m. c #5A3732",
"M. c #70493E",
"N. c #7F583C",
"B. c #595454",
"V. c #B8884C",
"C. c #8C5F42",
"Z. c #E8D39F",
"A. c #B98F4E",
"S. c #C38343",
"D. c #DA954F",
"F. c #E7AA5F",
"G. c #A16A48",
"H. c #6C4331",
"J. c #2E2825",
"K. c #74432F",
"L. c #E4D8BC",
"P. c #C6844C",
"I. c #F4BB64",
"U. c #645747",
"Y. c #E5DED1",
"T. c #653D28",
"R. c #7D6853",
"E. c #F0E7CA",
"W. c #BD965E",
"Q. c #FBE6B1",
"!. c #6F5F41",
"~. c #E5C992",
"^. c #EFCD82",
"/. c #D3B27E",
"(. c #483D30",
"). c #6E443C",
"_. c #B8723E",
"`. c #5E5B5B",
"'. c #CCAB79",
"]. c #DEC998",
"[. c #EECE90",
"{. c #D3884D",
"}. c #C29E75",
"|. c #EEE8D5",
" X c #C2AC88",
".X c #C9996C",
"XX c #4A4444",
"oX c #F1DCAB",
"OX c #AF5F38",
"+X c #A35C3B",
"@X c #EFC47A",
"#X c #ABA290",
"$X c #D9B88D",
"%X c #715E4A",
"&X c #A18766",
"*X c #644E3A",
"=X c #FBD172",
"-X c #D9B677",
";X c #B4814E",
":X c #534235",
">X c #9C5438",
",X c #865230",
"<X c #584E44",
"1X c #B47448",
"2X c #ECB161",
"3X c #DBC496",
"4X c #F4C773",
"5X c #AA7654",
"6X c #957555",
"7X c #93866F",
"8X c #836448",
"9X c #7E422E",
"0X c #E9A853",
"qX c #4A313A",
"wX c #F0AF54",
"eX c #BEB6A2",
"rX c #7E564C",
"tX c #BE7C40",
"yX c #807564",
"uX c #DDBD76",
"iX c #B79E75",
"pX c #F5D77C",
"aX c #987A5B",
"sX c #71332C",
"dX c #DCAD7E",
"fX c #DBAE6D",
"gX c #B57B57",
"hX c #F5D393",
"jX c #E0A05C",
"kX c #AC8E71",
"lX c #DA9F56",
"zX c #8C877D",
"xX c #A9A9AB",
"cX c #CB8744",
"vX c #D7C2A5",
"bX c #EAC688",
"nX c #C27248",
"mX c #8B4A39",
"MX c #944B2C",
"NX c #CEB995",
"BX c #FEF0C5",
"VX c #7D3C28",
"CX c #E4C288",
"ZX c #818183",
"AX c #99999B",
"SX c #E7B76F",
"DX c #6E6C6A",
"FX c #FAFFFF",
"GX c #F2D69E",
"HX c #B09D81",
"JX c #D69566",
"KX c #BBBDBE",
"LX c #C8865D",
"PX c #A29680",
"IX c #CC9649",
"UX c #D8CBB4",
/* pixels */
"`.U.E.W W W W W W W W l.l.l.l.eXB.XXc <XU.U.(.AXY.c.j.+.+.+.<X`.`.B.J.@.@.@.@.@.@.@.@.@.@.] S B.+.KXW W W W W W W W l.W W W Y.`.",
"@.vXbXv.Q.v.v.v.hXhXhXCXCXbXbX.Xz.5 6XoXvX/.aX`.AXS NXb.b.b.vXaXt <.vXL.L.L.L.L.L.L.b.b.b.3X}.4.@. XbX~.~.,.#.#.#.hX#.hXBXE.dXH ",
"+.E.k.0X9.3 9.3 + +  .D.k.3  .cXx.s [ /.K O.< } S @.[ , dXdXh X.9 -.~.w.,.uX-X-X-Xh.w.[ [ W.G.x.7XoXF. . .cX3.3 3 3 3 3 v._ _.sX",
"+.|.v.pX9.+ 0X  + +   k.3 =X9.3.x.D 2 p .X| z , ] -.dX.X.XI C.K.9 R.h.y b 1 [ @ @ @ @ y @ U ,Xz.7XBX=.3 3 F._.;.jXI.3 3 =.F.OXsX",
"+.|.#.=X3 + tXlX+ I.=XpX=X=X3 3.T.5 N.7 | O.7 w B 8X.X| w ' J H.t ~ 4 >.V V : # # # & # J z.1.A 7XBX=.3 3 3 2XG.,X;.3.e.e.D.OXsX",
"+.|.=.I.9. .OX2.I.+ 9.9.3 3 + 3.x.O s X.7 7 7 ' / } | x ' X.7.u $ ~ V V V V V # w 7 ! ~ u = $ $ -.oXk.  + + + 5.' 1.VXOXOXOX+Xr.",
"+.|.fXS.3.tXS.3.3.5.+     5.+ 3.T.X > z.B x.N.T.5 u ! ! 7.9 5 = X } 4 : @ : V # # 7 F n.&X7.> ; yXQ.$.F.e.` ` 2XjXB A %.%.%.r.5 ",
"+.Y.V.S.3.lX4X2X_._.` + 5.5.+ D.T.X ; > > S 4.:XR.R.yX%X7.:X:Xc X } 4 V : & # # # w i w i..Xq.5 yXQ.=.3 + k.P.tX1XK.5 = 4.U.U.(.",
"+.E.SX .  I.I.3 k.;.3.5.+ + 5.P.z.; 9 x.B q.a.}.$X$X$X'.a.}._ %XO ~ x m 2 0 U w w w e 2 , O.0 A -.Q.=.3 $.tXVXs., G.! / t.v.oXa.",
"+.E.4X .        + k.S.` ` ` 2.tXz.O ~ F K K I O.I | I I I Z a.rX- u T.T.X.C < 2 , e e e e h T.s yXv.5.2XP.s.gX>.[ | O.~ z g.h.d ",
"(.,.=. .          $.tXtXS.S.D.nXz.O B P K K K K n.n.n.I I K q.%.5 u H { 0 W.i J o e e e e o ! 9 ~ g.P.G.s.w | p p p F j ,X1X1XK.",
"9 S.`  .          5.F._._.P.D._.z.$ { P K n.K K T T T n.I I ..H.Q t H.n [ [ 2 C.F e e , o n ~ s A s.sXG.i.( p p p x d T.>.V.C H ",
"D S.`           $.     . .F.cX;.A O m.6.T T K K n n.I I I n.6XB 5 . ! F v v < K n h ..( x C j t Q d %.w y p O.p p x d z.| F K.1.",
"D tXlX2X5.5.2X2X5.` ` e.k.lX>Xx.O O G m.rXg g M T T T T ..M M.G $ ; D B H.H.d T ! r.x.P d T.s = ; Q z.s.5Xx , d.g 5XC &.G.s.%.s ",
"Q ,X,XG.;.+X;.;.;.;.;.>X>XmXy.> % % 5 u m.m.m.l l l k k k p.6 - X X J.qXqXqXqX<X+.XXqXqXqXqX<.c X > 1.%.H H H.%.y.C d A h C 1.5 ",
"B.&.u 1.u u u G 1.G G G 1.q = % % % X O = N N ^ ^ t t t c . . $ % S eX|.Y.L.Y.|.|.Y.Y.Y.Y.Y.Y.xXc X $ - Q Q Q Q . S S > &.9 $ f ",
"AX^ ; $ = N = = = = N = = $ O % X c <.:X*XR.(.% @. X X XHXiXiXkX] !.[.v.#.t.t. XHX,.uXuXuX~.Q.n./ X O D 9 f.f.<.; X X J.<XB.@.c.",
"N 9 ~ ! l ).L L L L L L M.M.p.. $ M.| dX[.CXiXc U.Q.~.'./././.}.B } @Xg.g.t.A.kX&X-Xr r r t./.' / c R./.$X].].'./ X S }.Z.E.kXu ",
"> J E : v # < i w , e # i < 6.6 ^ Y LXJXh.T } ^ <XGXw.e W.z i J &.B 1 U ' : v h.-Xg.8 8 8 r b J / :XZ.Z.-Xo.[ w.0 = :X( fX'.6.j ",
"S o.8 1 y : @ @ y @ @ z i i h k t g LXgXgXd A ; f.[.o.z @ 4 y X.A Q *X%XrX! d y 8 8 1 1 1 W.n J / ~ uXw.w.[ [ w.F Q S n | T M.&.",
"j._ r b 1 b m m i < @ ( & # x :.. B Y G.G.Y ~ ; f.[.t.4 y y 4 J &.9  X_ $XM.j x 1 1 1 4 : q.d.C./ ~ -XW.i.i.7 h 0 ! u { g d.8.&.",
"j._ r 1 y y y # ' U : z i # # :.- D 9 { H.7.S % f.[.t.4 & # 4 J / u [ o.@ v ~ C.y 1 4 v i M K C./ ~ t.i 2 F 7 2 2 7 q.~ / j &.s ",
"(._ 1 y 4 : & : # v U & x # z u.- ; O > Q > O % *X[.t.4 y : 4 J / Q ,X' m z ..H.h 1 z g P M 5XC.&.4.T h 0 F o o o o 2 n.n } { 5 ",
"(._ ( V : # m # e J 7 < U U z u.- X c ] ] ] 5 % f.bX[ i i x : N.A 9 o i z i < n ! 0 h H.A ~ B { 5 D H.C o o o o o o o 2 F .Xi.m.",
"(._ W.& # # 7 J N.X.v & & m m H.> c.iX,.-Xw.q.5 D R.} C g g 0 H.t S a.o e e e n.N.9 t > 9 U.%X] = 4.e 2 e ..o w i w # o 2 n 0 { ",
"(.~.( m 7 0 P J ' 0 m v F ' n d c aXGXw.b E E X.; S R.H./ &XT ! 5 S I Z n.e e e o 8X/ 9 e ,.~.M q 4.i m # 7 o x # , # i @ 7 C R ",
"D h J N.X.N.' : m ' ;XU x m s.d t P I w ;X@ E 7 t q.'.d.j 6XT 6.t D n.F , , i e o e q.B [ [ | 8.q 4.# 7 : @ m 2 2 o , < < 7 M p.",
"O m.0 ' v @ y y h C ;XV.;Xm G.k - ).g 2 p p o u.. 6.M 5X:.).).{ . c ..n o e z < ..< q.7.i.| d.l q ] F 7 & @ # 7 7 o , & m 0 Y 6 ",
"O L Z w @ @ & , g j M n 7 v 8.6 = l 6.d.d.M ).G = u.Y 8.l k L m.. - B g I W., M Y h u.4.n.M l G - c M.n w # & : @ 4 p p v d 8.0.",
"X 9 %.u.8.P 8.6.rXq L k l k p.. O G p.L rXL 6 . ; R L R q G ) 0.O $ ) L N.6.6.u.l r.R ] T Y G $ % = 1.M.P 6.P g g 0 0 g d r.r.= ",
"* = 5 6 6 6 6 p.6 = 0.0.G 6 . ; % $ 0.q G q - ; % O 5 $ = . . = X X c 6 R p.p.L M.G 0.S d.rX0.X % X . ) 6 6 6 6 6 6 6 R R s 5 J.",
"xX@.c.<.<.<.<.<.<.c.c.S c.c.^ % ; <XzXzXzXzX-.-.-.-.-.-.-.-.-.yXJ.% X $ N N N ^ c $ O $ D c X % % % % $ N N N N - > - - N $ ; DX",
"@.eX*.*.*.*.*.*.*.oX[.CXE.*...N <.Z.BXQ.Z.Z.Z._ _ _ _ _ _ oXQ.Z.%XO O D <.%X-.7X7X7X7XR.*X!.f.$ % O (.yX#X#X#X#X#X#X#X#X#XHX&X:X",
"XX*.v.#.#.#.#.#.#.^.4X^.Q.[.3.z.:XbXv.-XE A.E A.V.V.V.A.V.o.[.U x.N U.NX Xw.,.,.,.,.,.1 '.*.$XB O :XUXBXoX3X]._ Z.].3X3X$X/.a.} ",
"XXE.pX9.9.4X9.3 +     + + 0XnX%.4.t.b b r r 8 8 8 8 8 8 8 8 g.v T.^ iX,./.y ( y y @ @ @ W.'.o C D PX*.].'.W.y 1 o.1 W.4 4 & d l ",
"XXE.pX    +     + 9.=X=X9.wX{.x.D v V E E r g.g.g.r 8 8 8 1 V.s.j ^ &X# @ z z z z ( i @ y @ J ,X9 &Xa...>.>.: m # y @ @ & G.K.k ",
"+.b.SX . .3     + =X4X4X3 a D.K.$ 9 X.v U 4 r g.g.8 1 b E ;Xs.T.Q $ } ' x < ( y z ( z @ y m ' K.t aX7 ' z y 4 # U : # o C.sX1.. ",
"<X*.=. .  +       +       + 2.K.= 4.!.!.! J b r r b # 0 X.H r.s = X D B d 0 2 2 n h h h 0 C X.A = 6Xh.[ : U : : & v d { 9 5 $ X ",
"<X*.=. .   .                e.K.f.^.pXuXn { v V.m P j u A u s = X % % > u j m.{ j &.&.B m.&.q $ O d.h.W.W.: : V V ' n T 6X4.> % ",
"<XoX$.e.2.e.+ 0X+ I.  5.5.  e.9X!.pXr 4 , X.X.0 %.] @.j.j.j.j.j.c.J.<.j.j.j.(.<.^ ; O $ = = $ ; O aX>.V : : i i V V V @ [ i.0 s ",
":X_ lX_._.tX2.` + I.a 5.2X` D.9X!.pX8 z Z C 9 u *XHXb.b.L.L.L.b.NXNXb.b.b._ CX3XU.; 9 *X%X8X*X9 $ q.e m # U 0 0 v & & # U i 2 j ",
"D ;XD.SX@XIXcXa a a a a ` ` jX9X!.^.>.O.Z H O N  X*.'.1 o.t.t.o.o.h.h.o.o.o.o...L c a.#.#.^.[ ).5 f.Y P C.C 0 n m & & # # h :.G ",
"5 +X2.3 =X0X_.0Xa a a a e.D.3.%.7.( 5XM d s ; ^ iXo.b 8 b 8 8 1 1 1 8 1 b E y J r.D }.hX#.,.2 H t ) u.x.K.n : 0 x & & w w 7 :.G ",
"= >X2.wXwX2.OX{.a ` ` a jXnX9XQ O j k u . . u 9 a.E b b b 4 4 W.4 4 b 1 4 @ : 0 r.t a.h.fXI F H Q S m.P 7 z : C.2 < i i w , :.G ",
"O %.+XP.1X1X9X;.P.P.P.P.1XH s ; % $ $ = ] u.m.t n ;XV # U U m # # # # & < 7 0 H &.^ M O.Z Y C %.5 q p.g < x 7 F F n < i.2 C.r.A ",
"% > s y.y.y.5 A y.y.y.y.y.Q ; % % X . m.6.H G = m.).l %.%.:.l l L l L rX6.).:.j . O m.u.).k j 0.O - q :.H :.H P l k ).u.).l u > ",
"`.^ f `.`.`.B.B.B.B.B.B.B.B.+.N % % ^ S ) D . $ ^ . - > > 5 - - . c ) p.m.6 6 . X % . ) ) ) q $ X X . 6 6 6 6 ) ) ) ) ) ) ) - J.",
"ZXZX*.l.l.l.l.l.l.l.l.|.l.l.|.U.; S PXeXeXeXeXeX7X> ^ DXzXzX-.c.% X X O O O X % O ^ N - - - N X X % % ; O ; X N J.c.c.J.J.J.J.DX",
"f UXfXfX@X@X@X@X@X@X@X@XGXGXSXC S  XQ.oX~.~.~.~.}.A f.Z.Q.oXvXR.N O ) ! } 8XB ; U. XaXkXkX&X6X<.X $ u ! R.U.$ %XZ.Z.].3X].].NX:X",
"XXY.8 +X3.$.$.$.$.$.$.$.^.^.k.,X] $X,.h.8 8 r r p 1.} r r 8 x N.t 9 C.V.8 4 h > %XdX>.| >.| .Xq.^ / K i.$XvXc.yXv.uXr 1 r o.n { ",
"XX|.^.P.MXcX  $.$.$.$.=.4X=.lX,X] /.d.M 1 r r 8 4 &.9 V A.V.U B . ] h ;Xp 7 P ] ~ p p p p p O.} c C.| | , ! . R.hX1 E A.E A.H.6 ",
"XX|.SXF.3.MXS.k.e.k.k.k.k.lXS.VX] /.i.y 1 8 ( K 5X8./ { C v N.j . u C.gXO.p & ! j 5XO.O.O.O.M / > H gXO.5XK.5 !.[.g.b A.E b d R ",
"XXL.1 IX$.lXMXMXOX>X>XOXOX+XMXy.S [ 1 1 b w F M Z Z F d / j t > $ . r.d Y h h *X. ! g g P d M.S $ r.C s.Y 8.> !.^.t.r V A.b C R ",
"XXE.=.    I.lXK.1.A z.9X9XVXsXs D [ 4 : , M d.Z Z Z o ..T a.} { . = A j &.{ { / (.f.f.7.4.4.s = ; > &.R G s ; !.^.t.8 V V b C R ",
"<XE.=.  5.5.5.fX}.! Q > t S 9 O D w.< Y Y Z , o , , o ..2 .X.X6.s ; O > Q B X.kX3X_ 3Xa.}.].aX9 % X O > > O % !.^.g.E A.A.A.8.6 ",
"<XE.=.5.F.jXF.5.=.F.x &.&X].}.~ S [ g u.7 , , i < K K e , o , N.9 - f.8X0 v w i.h.i.i.( ( I w.} $ 7.8X6Xq.~ $ (.a...U v U & H 6 ",
"XX*.=.k.;.gXJX` a a 3.G.fX4XjXs.9 8X8.Y p , , e < , w < < o h d s q P 2 < # # & i x < z < g C j c F dXh.>.>.7.; ] U.4.] 8Xq.{ > ",
"t | 2XP.JXhX=.` a 5.1XD.` wX2.s.t l u.G.i.I Z Z Z o x < p w 2 g q ) 8.g , # # # w x < z z 2 d { D 0 v & 4 >.F c &X/.*X4.iX'.6.D ",
"5 1X` ` I.=.I.a a F.;.D.wXwX2.mX> 1.d ;X>.>.w ....o , i < w N.M.q S 8.h , # 2 h x m < < z z d R t q.7 m # w g 9 } ..6X{ B P :.A ",
"> 1X0Xa a a a a lX+XmXD.wX2.nX:.= G C.x y y i Z K ( ( ( O.O.M.k - t 8.M , # 2 v w z z , < o L q 5 P 2 2 n C %.t l Y M R 6 R k q ",
"^ G.cX{.{.{.{.P.+X9XG.2.e.{.mX0.$ G :.g M Y d.Z Z Z d.M M Y R q $ - R H 6.Y h 0 H Y , T ..u.R t N } M 6.H ).q O 6 :.u.6 1.y.y.0.",
"N j VX>X+X>X>XmXsXs.F.{.nX+XA $ % 5 G p.l p.k l k k k k k p.q = % $ q R k l L k G p.k k p.p.q O X q l l 6 G . X q p.q 6 R 1.0.N ",
"AXj.Q A 9 s s s Q 9 j 1.A 0.X `.ZXf $ . . - . . . . . . . . O * DX* O . c c c . N - - - - - X * ZX* - q - $ O % O = X O - N O `.",
"FXxX* * f f f f f f f f f f * KXFXZX* * * * * * * * * * * * * xXFXxX* * * * * * * * * * * * * AXFXAXf f f f f f f f f f f * * KX"
};
