/* XPM */
static char *_7a843a927544a0ab0aff312baada8ffR5CVl0v21Klgjp4r[] = {
/* columns rows colors chars-per-pixel */
"64 64 256 2 ",
"   c #010009",
".  c #05020F",
"X  c #AE9B7E",
"o  c #2B2638",
"O  c #08040D",
"+  c #02000B",
"@  c #B09F80",
"#  c #040009",
"$  c #030009",
"%  c #020007",
"&  c #080611",
"*  c #231D41",
"=  c #080716",
"-  c #0D0A1F",
";  c #A4937A",
":  c #A5937F",
">  c #17151F",
",  c #181328",
"<  c #241E2E",
"1  c #BBA989",
"2  c #AB987B",
"3  c #988676",
"4  c #262136",
"5  c #A9987F",
"6  c #120F1A",
"7  c #B5A17F",
"8  c #591D10",
"9  c #635A5E",
"0  c #322A39",
"q  c #766A6D",
"w  c #1D1A30",
"e  c #222347",
"r  c #A79477",
"t  c #AC9881",
"y  c #1C1A29",
"u  c #622113",
"i  c #B7A588",
"p  c #9C8B71",
"a  c #BCAB8E",
"s  c #998C77",
"d  c #554D54",
"f  c #3E3E56",
"g  c #AB4B1F",
"h  c #2E2941",
"j  c #34110F",
"k  c #0C0A18",
"l  c #C6B791",
"z  c #AE9E86",
"x  c #4A1812",
"c  c #93837B",
"v  c #211D34",
"b  c #C6551C",
"n  c #BDBCBA",
"m  c #120816",
"M  c #131122",
"N  c #9D8E7A",
"B  c #B7A582",
"V  c #D9CBA1",
"C  c #2F294B",
"Z  c #B29F86",
"A  c #B5A88D",
"S  c #B4A286",
"D  c #4B4559",
"F  c #736468",
"G  c #797075",
"H  c #3A3344",
"J  c #A38F78",
"K  c #C7C6C4",
"L  c #A2917E",
"P  c #6F6361",
"I  c #D5C39C",
"U  c #411310",
"Y  c #A8957C",
"T  c #938677",
"R  c #342D40",
"E  c #B35524",
"W  c #CDBB99",
"Q  c #29242B",
"!  c #8B7E75",
"~  c #BE501C",
"^  c #695F5A",
"/  c #96887D",
"(  c #E0D1A5",
")  c #524C5D",
"_  c #827377",
"`  c #AF9C7B",
"'  c #A79684",
"]  c #CFBD8F",
"[  c #0C0A13",
"{  c #675D63",
"}  c #9E8F7F",
"|  c #B14F21",
" . c #84786D",
".. c #504653",
"X. c #928372",
"o. c #CFC2A2",
"O. c #9B8D83",
"+. c #7D381F",
"@. c #12050B",
"#. c #521C13",
"$. c #AC9C75",
"%. c #A08E72",
"&. c #776F68",
"*. c #A79172",
"=. c #7F726A",
"-. c #AA9986",
";. c #403944",
":. c #C3AE8E",
">. c #1E1C3C",
",. c #292540",
"<. c #645967",
"1. c #5D575C",
"2. c #494353",
"3. c #151232",
"4. c #9E8B7D",
"5. c #5C505B",
"6. c #4A4763",
"7. c #250C0B",
"8. c #CE581D",
"9. c #32324D",
"0. c #BEAB80",
"q. c #43201A",
"w. c #A5461E",
"e. c #9E4621",
"r. c #766960",
"t. c #672615",
"y. c #8D7C6E",
"u. c #625955",
"i. c #8D8780",
"p. c #ACA297",
"a. c #D0C397",
"s. c #82716F",
"d. c #473C4D",
"f. c #887776",
"g. c #7F6E61",
"h. c #B4B0AE",
"j. c #3F3851",
"k. c #A94F23",
"l. c #1C080C",
"z. c #592419",
"x. c #2D0D0D",
"c. c #B3A279",
"v. c #43404B",
"b. c #323045",
"n. c #9B401A",
"m. c #BDB09A",
"M. c #97876B",
"N. c #BEB28F",
"B. c #B1A190",
"V. c #646C8F",
"C. c #7B6E6E",
"Z. c #F0ECE2",
"A. c #BBA77E",
"S. c #A19276",
"D. c #E8DAAD",
"F. c #E7D7A2",
"G. c #D2C6AB",
"H. c #DED4B8",
"J. c #585364",
"K. c #615360",
"L. c #0F0B26",
"P. c #B8A392",
"I. c #6A5F6B",
"U. c #943914",
"Y. c #252753",
"T. c #D35D1D",
"R. c #6E2611",
"E. c #D7C89C",
"W. c #F9F1D4",
"Q. c #333956",
"!. c #3B384C",
"~. c #4B424C",
"^. c #C5BA9A",
"/. c #A29683",
"(. c #3A3251",
"). c #F2E7CA",
"_. c #E6DFC9",
"`. c #EEE4C4",
"'. c #C9BEAB",
"]. c #3E3D64",
"[. c #3B1414",
"{. c #B44A1B",
"}. c #7A2C18",
"|. c #442920",
" X c #6B2C1A",
".X c #CA591F",
"XX c #C05623",
"oX c #E2D09E",
"OX c #8B836C",
"+X c #6E6772",
"@X c #F9F0C5",
"#X c #322E53",
"$X c #B6A99B",
"%X c #98928E",
"&X c #8A807C",
"*X c #DBCEAE",
"=X c #B4AF81",
"-X c #E7DBB7",
";X c #BDB5A7",
":X c #C7B499",
">X c #240B12",
",X c #8C3C1F",
"<X c #AD4318",
"1X c #6B6A84",
"2X c #C9B688",
"3X c #C1AF87",
"4X c #696561",
"5X c #867B67",
"6X c #8B868E",
"7X c #847C7D",
"8X c #4E4948",
"9X c #706359",
"0X c #AA9B8B",
"qX c #D4C9B8",
"wX c #3A313B",
"eX c #938C8C",
"rX c #615F80",
"tX c #A69897",
"yX c #BDBAAE",
"uX c #D3CB97",
"iX c #817873",
"pX c #474043",
"aX c #C6C3B8",
"sX c #917B6A",
"dX c #E8E1BE",
"fX c #A79C7D",
"gX c #5F596C",
"hX c #C4B1A0",
"jX c #A5928B",
"kX c #C16125",
"lX c #B95D23",
"zX c #A49570",
"xX c #A69E8C",
"cX c #A1958B",
"vX c #D5CBA9",
"bX c #9B9A7A",
"nX c #E8E4D8",
"mX c #7D7884",
"MX c #E0D8C8",
"NX c #2C2F59",
"BX c #CA5E25",
"VX c #72321F",
"CX c #FFFAE7",
"ZX c #84775D",
"AX c #F3EAD2",
"SX c #987E83",
"DX c #444B71",
"FX c #27131E",
"GX c #D7D3C9",
"HX c #604949",
"JX c #BE5C27",
"KX c #54342B",
"LX c #756349",
"PX c #D17029",
"IX c #F1ECA1",
"UX c #BD5F31",
/* pixels */
"r S.S o.D.( :.c.$.X 5 N 4XwX0 : W :.p m.:XX J c K.gX=.t 5 3 ^ ~.q $X^.Z @ B E.oXF.I 7 ` ` ` fX .~.;.X.( l $.%.l oXI :.1 Z 2 Y ; ",
"Z z i a I W 1 2 : 5 5 T Q w 5.P.:.:.@ a 7 r ; 4.3 T T ; 2 =.Q 0 9 $X'.A i 1 W W W a 2 2 ` 5 cX1.y ;.p.( B @ @ 1 l I l X J J J %.",
"1 :.i i W 1 S Z 3 L -. .y v O.1 7 7 7 7 7 7 A.` @ N / N N u.6 Q &X;Xp.-.z A G.:X1 1 2 r 3 f.mXD - v.p.1 c.B B ` l V A.1 r p J ; ",
"X ` 7 7 B 7 r r 3 L a &., v xXB ` %.` ` 7 A.0.c.@ : ' } } u.k < ! z X 2 X @ i S Z J S.: &X) gX!.- v.cX; 2 B A.0.0.1 7 2 M.M.' -.",
"r $.7 c.c.7 r  ./ @ a &., w iX&.5Xp X X ` c.A.5 / L : 3 N ^ k <  .OXOXfXX X X @ z /.! xXp.9 q v.k H 7X=.y.t @ @ X @ p ZXsXZ : 3 ",
"s ZX5XOXOXp 5XF B.z r.d w - 0 ..=.: y.&.P P &. .P =.' T ^ ~.k > pX9 7XcXT r.r. .! ^ 4Xi.eX&Xr.pX[ y v.4Xy.T ! =.&. .=.P r.' G <.",
"I.D D J.F 9 ..0 5.9 R o , . k 0 d 1.9 +X<.;.) 1.;.d.9 5.R , = = - h ) <.K.~.d.5.<.d wX2.) v.Q > # O y d { 1.2.J.gX+X+XD 2.4Xf !.",
"9.C ,.h !.b.h 3.>.,.4 6 . + . 6 0 0 ;.d ..0 H H o o 0 H < & . . & , R R R R R R R R R 0 0 o 6 # #   = y o b.h b.b.b.b.o v 4 v v ",
"= = = = = = = . . & & $ +     + O O O O & & & & & O O & . + +   + + . . & & & & & & & & & O + + +   + . & = = = = k k k = = k = ",
"L.L.L.>.* ,.6.!.y R ,., . $ $ # # # $ $ $ $ $ $ + +     # #     $ $     % % % % $ $       + + + + + Q ;.Q M - , 4 o o v.o M !.!.",
"..D (.e C e j.) ~.9 J.(.M . # # # # # # # # # # # # + + # # + + # # +   $ % % % $ # +   + + + + + & v.7X%X&.v.o o o H ) 2.J.+XJ.",
"H.aXiXR * I.iXC.&.^ J.D 4 O   $ # # # # # # $ $ # # $ # # # $ $ # #     # # % % $ # + + + + + + + k { yX_.qXxX{ o o &.%X9 9 i.G ",
"`.-Xo.c <.p.o.z O.r.4X~.< O % $ # # # # # $ % $ # # # # # # # # # # % % $ # % % $ #   + + + + + + k i.`.H.H.*X^.i.1.qXhXN X.f.I.",
"a a :X:Xf.tX:XP.hXX.5XpXy O $ # # # $ $ # $ + $ # # $ $ $ + $ + . . . . . . . . + + + + + + + + + k i.G.1 i B N.G.9 hX5 X a O.<.",
"A 5 S o.s.SXhXjXa ; s u.R & # # # $ + $ # $ + $ # # + + + . - w o h h h h h h ,.o o 4 4 4 4 v w w , i.o.B 7 ` B A 1.A r Z P.P.f.",
"5 ; S P.K.F P.Y ; 5 r  .;.& + $ # $   $ # $ + + $ $ + + + + , 6.C * * * * * * * * >.>.>.* * >.9.v , %Xo.@ X @ S T d m.a S 3 ` ` ",
" .-.-.f.K.SXhX@ r y.X.=.R & + $ # $ % $ # $ + + + + + + # + , (.C * * * * e * * * * * * * * * ,.v 3.7X;XT N S s 9X9 0XS Y %.*.3 ",
"v 9 / 4.4.hX-.X.T P 9 ..< O $ # # # $ $ $ $ + + + + + + + + M v C #X#X#X#X#X#X#X#XC C C C C C ,.,.3.,.j.h d / X. .s z 5 Y M.ZX{ ",
"L...F &XjX} 9Xq { ..H o 4 & # # # # # $ + + + + + + + + + + . & = [ m m m [ m m m m = m m m m [ m , 3.L.- w <.%X&X0XO.P q 9 ..j.",
"< H 2.{ 1.d ~.d.o 0 o w M . # # # # $ $ $ $ + + + + + + + + + O >Xl.q.x q.l.q.[.[.[.l.x #.x j l.j FX3., < v f gXgXI...d...4 < < ",
";XGX_.nXnXMX'.p.^  .C.d , O # # # $ + $ # $ + + + + + + + + + @.[.x. X Xz.7. X#.U z.7.z.8 #.x >XU FXC D c.z K Z.nX_.H.*XxXu.g.9X",
"W.).H.).AX*XV ^.5 p 3 r.H [ $ # # # $ $ $ $     + + + + $ $ # l.U j +.+.VXx.VXVX+.t.x.t.}.}.t.[.u 0 rXeXIX@XZ.Z.W.@X( V N.M.3 c ",
"V I a.W o.N.1 2 %.p p &.!.[ $ # # # # $ + + %   + + + + $ O l.j 8 x E kXE 8 k.kXBX,XU n.T.XX}.#.,Xq.i.o.F.( G.'.G.vXa A @ zXs c ",
":X0X3 } A 5 ; %.%.%.M.P 4 & # # # # $ $ $ $     + + + + # # j 7.U 8 E U.| u k.w.BXe.8 <X8.b U.u e.|.'.D.:XB.} 0XB.X L J p zX3 c ",
": ! s.$X: ; ; ; S.S.X.P o & # # # $ + $ # $ + + + + + + # # l.l.x u lXU.E R.k.U.XXe.8 <X.X.Xw.t.| |.%X'.B.4.g.z 1 zX*.r %.p 3 c ",
": L N -.N s c q f.4.y.{ H [ % # # # $ $ $ $ + + + + + + $ +   # U 8 lXn.E R.k.U.XXe.8 <X8.T.| t.w.q.G B.J S.i a $.zXX.=.^ M.3 c ",
"%.; 5 A 5 q tX_ s.T ! <.4 & % # # # # $ + + + + + + + + +   + % x.8 lXn.E R.k.U.XXe.8 <X8.T.g u n.|./ S.Y 5 5 : fXOXg.i ^ 3 c _ ",
"N ; 5 Z 5 C.J.d.F 3 s _ h & % # # # # # $ $ + + + + + + $ +   @.U u JXn.E R.k.U.BXg u ~ 8.T.g u n.q.M.t Z Z Y : 0X' 9X^ ;.c } / ",
"s ; /.' L O.q K.s.3 ! G R & # # # # # # # $ + + + + + + # # % >Xu 8 kXU.lXR.g U.~ g u b T.T.g u w.q.g.sXsXJ 2 t t J sXr.K.SX4.} ",
"! s.q G F I.I.d.K.c { !.4 . # # # # # # $ $ + + + + + + $ @.j x.x x kXn.E t.~ b .X| u b 8.T.g t.g q.d.5.q &Xs.P r.{ +X<.D G ~.v.",
"6.(.(.f ].].(.* C j.9.v - + # # # # # $ + + + + + + + + + @.z.j U x kX| k.8 ~ T..X| u ~ b 8.<Xt.w.j > H J.D 2.2.) 6.6.Q.* j.C ,.",
"y y w w w v M k k - - = . + # # # # $ $ $ + + + + + + + + # @.>X8 x k.kXE 8 {.b XXk.#.g <X~ n.z.,X7.& M w M , w >.>., M = 6 M 6 ",
"k - - M M M y 6 . 6 6 O + + # # # $ + $ # $ + + + + + + + + + m U x.z.+.+.U +.}.+.VXj VX+.+.z.j KXl.> < , k = - L.L.< Q [ [ > < ",
"C h 4 o o 4 I.~.< ..d Q m O # # $ $ $ $ $ $ + + + + + + + $ y ) ) J.mX6XeX6XeX6X6X6X6X6XmX1X1X6.9.6 wXSXC.0 < h (.,.C j.0 wX1.P ",
"yX&XG d.v ..G 5.d I.+Xd.< O # $ + $ # $ + + + + + + + + + + v ].].DXrXrXV.V.V.V.V.V.V.V.V.V.V.DXe m KX:.qXp._ <.b.h 5.G P u.9Xg.",
"@XdXvXxX{ ! './ i._ C.2.4 O $ $ + $ $ $ + + + + + + + + + + w DXNX9.9.9.9.9.Q.Q.Q.Q.Q.Q.Q.Q.].e >.[ g.).Z.AXMX'.d u.'.m.: y.g.r.",
"uXV a.uXbXbXo.A N.c F d.y . + $ # $ + + + + + + + + + + + + , e e 9.f f f Q.f f f f f Q.Q.9.e e >.m T `.G.^.^.V G.5X*Xm.P.: 0XX.",
"=Xl l l bXbXl L :.4.s...o & + $ # $ + + + + + + + + + + + + & = = 6 > > M M M M - - - M 6 6 6 = = @.M.( =X=XN.=Xo.LXa p.P.m.-.X.",
"1 =XN.N.OXs ^.s ; 3 L q H & $ $ + + + $ # $ %   + + + + + + + @.x.l.q.|.FX@.x.x.l.>X@.x.j x.>Xm >X>XM.uX$.=X=Xc.zXLXS B.Z J 3 p ",
"N.fXA O.d F z X : / : f.H & $ $ + + + $ # $     + + + + + + % @.[.7.z. Xq.7.z.8 x z.7.u }.}.#.[.z.FXM.uXbXfX=X=XZXu./.A X r *.%.",
"F T } C.=./ L X -.O.s.{ H & + + + $ # $ + + + + + + + + $ # 7.j #.U w.| ,XU n.w.U.,XU e.{.<X,X8 ,X[.HX! &.P fXfXr./ /.t *.*.*.X.",
"L.1. .X.X Y 3 5 / q K.d.o & + + + $ # $ + + + + + + + + $ O 7.j #.U | b n.x | PXBXe.x g .Xb n.R.g x 6 4 h wXg.y.L m.L 3 p y.g.d ",
"L.!.u.u.9X .d d 2.h 4 4 4 & $ $ + + %   + + + + + + + + # # l.7.U x {.b w.x g .Xb e.x w..Xb U.R.E q., * 3., pXq iXC.9 5.1.;.< y ",
"L.b.2.D ) ) v.H ,.0 0 4 k + # $ + + %   + + + + + + + + $ $ # # [.#.{..XPX8 g b .Xw.#.w.b b n.}.E q.w >.L.y 9.6.6.D f !.h Q 0 Q ",
"h.aXnXZ.Z._.vXA <.iXiX1.y O %   + + + + + + + + + + + + + $ # # 7.#.{.b kX8 E b BXg t.g ~ 8.| R.k.|.o H %XK GXZ.Z.Z.GXK %X9XOX5X",
"W.dXdXdX*Xo.^.@ ! c T q ;.[ %   + + + + + + + + + + + + + +   @.x 8 {.~ JX#.k.XX.Xg R.XX~ 8.| t.w.KX1.4XnXAXD.-X-XH.vXo.A s s s ",
"( V V a.:.i z Y : 4./ q R & $ $ + + + + + + + + + + + + $ # % j  X8 {.~ JX8 E b .Xg R.XX~ 8.| t.e.|.G yXqXI I I o.:Xi ` 2 } } N ",
"1 ; T s Y Y Y t 5 } O.^ , O # $ + + + + + + + + + + + + $ O j U  Xu {.~ JX8 E b .Xg R.XX~ 8.| u e.|.eXMX$XZ Z O.i.t r *.zXL } } ",
"s &.{ / ' 2 @ 2 N } O.P o & # $ + + + + + + + + + + + + + O [.j t.u {.~ UX8 E b .Xg R.XX~ 8.| u e.|.c qX/.s / eXp.; *.*.*.' p p ",
"s s s a i Y sXr.=.c ! 9 < & # $ + + + + + + + + + + + +   # @.7.u 8 <X| e.#.k.g E e.u w.g E ,X#.+.|.g.i Y J : B.a *.%.&.P O. . .",
"; 5 5 S.S y.f.F F ! C.9 < . + + + + + + + + + + + + +     % % x.x x.}.+. X[.+. X+.VXx  X+.+.z.j q.Q r.t Y 2 @ @ 2 p X.+XgXO.y.y.",
": X @ : ! K.+XK.P 4.c F o . + + + + + + + + + + + + +   %   4 D f f I.s._ G _ _ f._ F HXHXF 5...o < 9X%.p 2 i i r sXJ.1X]._ p p ",
"' Z J 3 s.q f.5.F 3 4.s.o O $ $ $ $ + + + + + + + + + +   + ,.6.].].DXrXrX1X1X1X1X1XrX6.6.V.rX].#Xw u.3 y.N z z r p C.7X2. .p s ",
"i.7XI.iXi.&XC.5.<.q K.H v O # # # $ + + + + + + + + + + + + 3.3.>.e Y.NXNXNXY.Y.Y.Y.Y.Y.Y.Y.Y.3.- - b.<.G f.f._ O.c 7XG !._ F K.",
"f f D 6.6.) ) !.,.j.b., - + + +           + + + + +       + - - L.3.>.e e e e e e e e e e >.3.- & & , R D D D D D ) J.(.e j.(.* ",
"y y y w y < < > 6 > > [ + + . k 6 k [ [ [ [ & & k k 6 6 6 O % % O 6 > > > > > > > > > > > > 6 & O O O > < 4 4 w , w v v w y y , ",
"n n n h.d q h.h.h.h.h.G Q & Q p.K n n n n n 4X^ n K n K K q 6 O 8XyXK K K K K yXm.yXK K aXaXn d [ [ wXh.n n n n G q n n n h.h.n ",
"@XCXZ.qXg.m.).`._.MXqXtXi.;.;XdXW.W.@X).`.`.$XaXCXCXCXnX;Xp.eX8XaX*X).W.W.).H.( D.W.W.`.V V B.p.^ 8XaXH.@X@X@XdX/./.dX`.`.dX-X*X",
"( -X_.^.W *XV I :XP.' g.F v.MX( F.F.D.V N.oX-X_.AXD.o.m.' 5 =.8XH.I E.D.D.( ] ] V -XE.2X$.z / X.8Xu._.a.F.F.F.2XB ( a.] ] c.7 i ",
"] uXE.*X-Xo.3XI S : 5 L f.j.'.I ] ] a.E.E.F.oX2X] 2XX t $XcX8X8XG.W l W a.V oXoX] 0.2X0.r L } OXpX1._.W a.a.a.E.( E.0.I ] ` : : ",
"3Xi l ( D.I 1 l Z : : 4.{ j.O.vXl 1 S l F.oX] 0.A.7 t t B.G H d tXm.N.1 3X] oXoXE.3X:.i Y ; /.P 0 2.h.;XS B 7 ( D.E.l l :.X : : ",
"a 4.1 a.uXI 1 2 Y : L ! o d...A :.t z @ :.l G.A 2 X t ' -.9 !.f gXh.m.r 7 c.] 2XW S X 2 ; S.cX9 d.) G $XP.;X0XW E.E.W @ J ; : : ",
"1 S S i 1 ; 2 a t jXjXq w < q 5 i 1 W B B B z @ 7 @ t ' ' 9 > y mXtXz @ B 7 0.A.@ @ r ; ; S.T pX, d.%Xz B.;X$XA A.2X$.@ t J ; L ",
"*.A.S N.E.@ r X ' jXjX_ < > q Z a 5 @ 0.] 3XX X z t -.' L u.6 > mXtX-.@ @ B ] 3X$.c.$.S.N =.^ ;., !.eXX X @ B 0.0.0.$.A B.N J } "
};
