/* XPM */
static char *_783ca7052cb40e6966e156104668681Fu9HTAD1dXULUOqi[] = {
/* columns rows colors chars-per-pixel */
"64 64 254 2 ",
"   c #040104",
".  c #0B0102",
"X  c #05050A",
"o  c #0D0309",
"O  c #130101",
"+  c #1B0201",
"@  c #12050B",
"#  c #150B0D",
"$  c #1A0A08",
"%  c #181802",
"&  c #070C14",
"*  c #190A14",
"=  c #191617",
"-  c #240102",
";  c #2B0201",
":  c #290707",
">  c #210F0F",
",  c #370603",
"<  c #291704",
"1  c #371604",
"2  c #280A16",
"3  c #360917",
"4  c #291617",
"5  c #321817",
"6  c #391918",
"7  c #152B08",
"8  c #2C2E0D",
"9  c #35221C",
"0  c #3C241B",
"q  c #071529",
"w  c #09132D",
"e  c #2B1929",
"r  c #331920",
"t  c #3A1A26",
"y  c #35122B",
"u  c #142438",
"i  c #2D2725",
"p  c #392827",
"a  c #3A2737",
"s  c #332D31",
"d  c #3C3334",
"f  c #343338",
"g  c #490A01",
"h  c #4D0D08",
"j  c #471608",
"k  c #551806",
"l  c #481718",
"z  c #551B17",
"x  c #681A0B",
"c  c #502B0C",
"v  c #473A01",
"b  c #492518",
"n  c #592719",
"m  c #6C2D15",
"M  c #77271B",
"N  c #481825",
"B  c #4A1C31",
"V  c #611D2A",
"C  c #462321",
"Z  c #46242B",
"A  c #4C2A29",
"S  c #542726",
"D  c #4A3829",
"F  c #593626",
"G  c #46283A",
"H  c #572C38",
"J  c #413832",
"K  c #463B35",
"L  c #5A3835",
"P  c #652827",
"I  c #663829",
"U  c #78382A",
"Y  c #722F32",
"T  c #6B3B36",
"R  c #633B39",
"E  c #194A00",
"W  c #334E0B",
"Q  c #36502D",
"!  c #38692A",
"~  c #4E4A0D",
"^  c #6F520A",
"/  c #54700C",
"(  c #747615",
")  c #48532D",
"_  c #574539",
"`  c #674F2D",
"'  c #7A432E",
"]  c #6A4737",
"[  c #794939",
"{  c #78543A",
"}  c #4F6F2E",
"|  c #726B32",
" . c #0E314F",
".. c #3B3A40",
"X. c #353148",
"o. c #233C5B",
"O. c #0E3965",
"+. c #543345",
"@. c #653349",
"#. c #134A72",
"$. c #2D5163",
"%. c #4A4445",
"&. c #554B46",
"*. c #52514A",
"=. c #5B5757",
"-. c #764A42",
";. c #695A45",
":. c #795848",
">. c #705052",
",. c #656C52",
"<. c #796454",
"1. c #746D6B",
"2. c #8B250E",
"3. c #862F17",
"4. c #8D392A",
"5. c #934B17",
"6. c #A6471B",
"7. c #986615",
"8. c #974A2A",
"9. c #904F29",
"0. c #894637",
"q. c #974538",
"w. c #865538",
"e. c #9C5537",
"r. c #AC4C2F",
"t. c #A85B39",
"y. c #8F693A",
"u. c #B16C39",
"i. c #B8743D",
"p. c #C45F29",
"a. c #D07632",
"s. c #914E48",
"d. c #855945",
"f. c #9B5949",
"g. c #AF5847",
"h. c #8B6549",
"j. c #956645",
"k. c #9C724B",
"l. c #896B54",
"z. c #9B6953",
"x. c #967657",
"c. c #A76A45",
"v. c #B46848",
"b. c #A67949",
"n. c #A6794C",
"m. c #B97845",
"M. c #B36E57",
"N. c #A57755",
"B. c #AA7D52",
"V. c #88766B",
"C. c #967567",
"Z. c #B37764",
"A. c #C57546",
"S. c #CD7452",
"D. c #D27F57",
"F. c #718E2A",
"G. c #6C962A",
"H. c #5A8751",
"J. c #6D974D",
"K. c #76A954",
"L. c #A88630",
"P. c #88AA36",
"I. c #D28833",
"U. c #DA8939",
"Y. c #E88B35",
"T. c #B5884D",
"R. c #AE8253",
"E. c #AD825C",
"W. c #B18554",
"Q. c #B68955",
"!. c #B58A59",
"~. c #B98958",
"^. c #BC9358",
"/. c #8CB648",
"(. c #968A76",
"). c #A88666",
"_. c #B78868",
"`. c #B5926E",
"'. c #A98A75",
"]. c #97AB63",
"[. c #C68548",
"{. c #D5884B",
"}. c #D0904F",
"|. c #DA954D",
" X c #CF8853",
".X c #C59B5A",
"XX c #D99E58",
"oX c #EB9250",
"OX c #E29E51",
"+X c #CDA35C",
"@X c #E0A459",
"#X c #E7A759",
"$X c #EDAD5B",
"%X c #F1AE55",
"&X c #EDB55C",
"*X c #F1B25C",
"=X c #F2B95F",
"-X c #C28D63",
";X c #C49662",
":X c #C89A68",
">X c #D0926E",
",X c #D59877",
"<X c #E9926D",
"1X c #CCA369",
"2X c #D4A96A",
"3X c #CDAA77",
"4X c #D7A978",
"5X c #D8B47C",
"6X c #EBB666",
"7X c #F0B562",
"8X c #FCB064",
"9X c #F3BE62",
"0X c #F0BE6F",
"qX c #EEAA71",
"wX c #A6C960",
"eX c #F7C568",
"rX c #EFC47A",
"tX c #F7C777",
"yX c #F9D378",
"uX c #195B8C",
"iX c #15669A",
"pX c #206496",
"aX c #226897",
"sX c #2B77AA",
"dX c #908E8E",
"fX c #AD988B",
"gX c #BBA88D",
"hX c #ABA290",
"jX c #B5B2AF",
"kX c #D1B48D",
"lX c #EAB78A",
"zX c #F3B48D",
"xX c #CCB3A9",
"cX c #DDC797",
"vX c #ECC984",
"bX c #FDD889",
"nX c #E9CC98",
"mX c #F7CD93",
"MX c #F9D997",
"NX c #FBE38E",
"BX c #D9C5AA",
"VX c #FBCDA7",
"CX c #F6DAA8",
"ZX c #E5D6B8",
"AX c #FCE7AE",
"SX c #EEE4BE",
"DX c #E7DBCA",
"FX c #F2E8C9",
"GX c #FFF3C7",
"HX c #F1E8D5",
"JX c #FFF7D4",
"KX c #F7F1DF",
"LX c #F7F5EA",
"PX c #FAFFFF",
/* pixels */
"=.;.FXLXLXLXLXLXLXLXLXKXKXKXKXjX=.%.4 &.;.;.K dXDXp _ *.*.*.&.=.=.=.i J J J J J J J J J J A 9 =.&.jXLXLXLXLXLXLXLXLXKXLXLXLXDX=.",
"J BXvXMXAXMXCXCXmXmXmXvXvXvXvX:XF > x.CXBX5Xx.=.dX9 kXZXZXZXBX).p _ BXZXDXDXZXZXZXZXZXZXZXcX:XD J kXvXnXnXlXMXMXMXmXMXmXGXFX5X[ ",
"&.FX@X#XeX9XeXeX=X=X&X|.@XeX&X[.I 5 :X5XE.!.!.{ 9 J :X<.< < 1 1 1 1 1 1 1 1 6 kX5X2X1X:X:X^.c.I (.CX#X&X&X[.}.9X9XeX9X9XMXnXi.Y ",
"&.HXMXyXeX9X#X&X=X=X&X@X9XyXeX}.I 5 B.~.:X-X!.R.&.D F x.4X5X1X4X2X4X1X~.c.B.N.w.I L ^.^.^.b.w.F (.GX0X9X9X#Xi.c.@X9X9X9X0X#Xt.Y ",
"&.HXMXyX9X=Xi.XX=X9XyXyXyXyX9X}.I > { n.-X!.n.C.` 1X1XXX@X#X$X#X*X8X#XOX|.A. Xv.s.n C.!.y.F N 6 (.GX0X9X9X9X7Xc.w.c.}.#X#X|.t.Y ",
"&.HX0X9XeX&Xt.OX9X=XeXeX9X9X=X}.I o 5 { n.n.:.w.T.6X#X#X|.U.OXU.a.Y.Y.Y.Y.U.a.r.3.M l >.A # @ @ V.CX@X&X=X=X=X7Xj.C U t.t.t.t.F ",
"&.HX2X[.}.m.[.}.}.7X=X&X&X7X=X}.I   $ F ] n v.|.oXoXOX|.U.U.a.U.Y.Y.Y.I.Y.Y.Y.p.r.M P N >._ $ . V.AX6X#X#X$X$X7X@XF 6 I I I F > ",
"&.DXT.[.}.XXtX7Xi.i.$X=X7X7X=X|.I   . * F c.a.Y.Y.U.I.7.^ ^ 5.7.p.a.U.Y.Y.Y.Y.{.r.3.Y V N +.h.> V.AX0X9X=X@X[.m.m.' > # D ;.;.K ",
"&.FX6X&X&X9X9X9X@Xc.}.7X=X=X7X[.F . 9 <.y.I.a.a.I.7.^ ( ( P.~ j 5.A.{.U.U.U.U.{.oXr.M Y N 5 N.6 V.AX0X9X6Xm.U j.R.c.] A 2XMXCX`.",
"&.FXtX&X&X&X&X&X=X@X[.$X$X$XOXm.F o ] v L.[.I.i.5.^ ( P./.G.~ 8 v 9.y.u.i.u.u.u.e.g.0.P H 6 &.0 V.MX7X7X[.j.B.;X:X-X!.] !.2X2X[ ",
"K lX0X&X&X&X&X&X&X6Xm.m.[.[.|.A.F o < ( ( ^ ^ v v / P./.G.E W W ) ` c c n m I n n n n z l t * =.] 2X[.c.j.W.-X~.~.~.N.A w.m.m.' ",
"9 [.$X&X&X&X&X&X&X7X#Xi.i.[.|.i.F 8 | wX/./ W ~ /.wX/.G.E E K.].H.) < - ; : : ; - + + - O $ @ . _ j.Y c.;X~.~.~.~.B.[ I ;XT.w.[ ",
"5 [.$X&X&X&X&X&X6X&X&X&X&X#X[.c.K % F.wX/./ E J.wX/.F.E 7 } J.J.Q 7 % i a a a +.* * @ . . O . @ i :.I W.^.~.!.~.~.B.[ F -XN.' C ",
"5 m.XX7X7X7X7X7X7X$X$X#X@XXXe.I % % F.P./ W 7 W ( / W 7 7 ) ! W % % % 9 i p t t 4 > O O . + + + p 5 F j.N.B.B.N.h.N.w.C c.j.I 5 ",
"4 w.w.c.c.t.c.c.c.c.c.e.e.0.S 5 b 1 v ~ v ~ v v v ~ v v v v v 8 1 c c j 1 c c j j b 1 1 1 1 , , 6 <.L ] :.-.] I S w.[ 6 j.w.C > ",
"=.C 0 C 0 0 0 t C t &.0 b b 6 F _.Q.T.T.T.^.4X:XXXXX+X.X:X2X1X1X4X,X:X:X:X>X>X,X,X,X,XZ._.Z.Z.Z.C.:.6 6 5 2 > p > 9 9 $ C 9 @ f ",
"dX* . @ # # # # K L ] d.z.M.-X~. X[.i.[.i.}. X X{.A.{.{.{.{. X X X[. X X XD.D.S.S.D.M.v.v.v.M.M.z.f.s.s.s.>.>.H G d   i &.=.d p ",
"# 9 ] ] R ] :.<.l.d.f.t.t.t.t.t.t.t.9.9.8.8.8.e.6.6.6.6.6.6.6.5.8.8.8.6.6.6.6.6.6.8.9.9.4.4.4.4.U U U Y Y @.H N Z Z >.3XnXFX'.0 ",
"$ y.^.Q.b._.[ Z._.M.0.4.4.4.z h z z j j k g l h j , g k M 3.x x g , g x 3.2.2.2.x g , 1 3 3 l l h l l N H @.@.+.H t - C.5X3Xd.A ",
"9 1X.X.X_.l.Z.z.U Y P Y R H 3 : : - - ; , , 3 - - - ; z q.M.r.M , ; , z q.r.g.q.U j + + : 3 : - - - + 3 G G +.@.H +.H + >._.] C ",
"K nX+X.XL l.@.Y z , ; + @ o o o O + + , h z N : ; ] S z x q.<Xg.g n , g M v.<XM.z.I , ; 3 S P h 3 2 @ @ * o * 2 3 @.H G 2 '.d.C ",
"K nX+X.X:.>.@.H H 3 : @ o X & X . + ; k 0.U z 3 b -.L C , z M.f.g 0.0.m m M z.' [ I j , 3 P 0.0.l 3 @   X o 2 3 3 N +.@.2 -.C 5 ",
"K nX.X^.`.+.+.@.@.B B 2 @ o o o # $ j 0.v.q.h z s., + + O - l P g M.qX>X0., 6 $ + - - l l z 0.Z.0.S +     * y y +.@.H t C.:.F > ",
"K nX^.T.Q.'.@.y B +.+.+.t e # @ e > n Z.v.8.h U M., + O   . + ; h S.<X Xk +   o + - ; Y P , n f.Z.P + $ = e G +.B B y C.N.:X;XL ",
"K nX^.W.R.R.).C.l.<.G a a 4 4 @ e 2 n Z.9.k k v.>Xm j + . O - g 4.<XoXoXx , . o - n k f.s., , I z.P + = 4 d G @.'.'.`.B.B.k.j.F ",
"K nX^.R.n.j.d.y.j.j.<.G a a a e a Z l j.U g 3. X,X-Xx.5 . + n M.D.<XoXoX XI $ o : d.Z.,Xf.g + ; T l 9 d s K +.`.R.R.R.W.^.n.w.A ",
"5 k.y.{ { { j.Q.B.j.T.b.B.R.z.=.3 3 ; n k k v.<XzXlXh.O . . n ,XqX<XOX#XqXI O @ + C.VXlXf.z - O 5 > jX).Q.^.R.B.B.B.R.!.!.n.z.H ",
"o L j.j.b.Q.^.^.j.w.T.T.T.B.k.=.- ; ; 1 , g D.zXVXJX'.O . + ` nXmXmXtXyXMXd.O @ . (.GXzX-Xz + 2 > 4 jXB.W.^.R.n.n.B.R.W.B.j.j.Z ",
"o R B.W.^.^.W.R.h.A z.k.n.b.fXD '.kXxXl.: j qXzXVXJX(.. . . ` nXMXbXbXNXMXh.O .   (.GXnX4Xk S fXxXdXK `.R.R.W.Q.^.^.~.~.b.[ d.4 ",
"  9 I -.:.d.d.d.:.r R L R R <.l.GXGXZXx.- c zXmXCXJX(.@ o . ` CXMXyXNXNXMX{ O @   (.GXCXlXk n BXHXDXC.C.d.d.d.h.h.j.j.h.[ F F # ",
"f # > Z Z Z Z H Z # 4 4 t &.< kXCX5XN.I , w.zXlXCXJX(.    O ` nXMXbXbXNXAX| O . . dXJXCXlXm , l.kXVX`.1 L Z Z Z Z Z Z A A 5 > i ",
"jXJ p d d d d d d p p p p &.0 `.lX9.k g k M.qX0XMXGX(..   . ~ MXbXbXbXNXMX| O O . (.GXCX4Xw., k e.lX_.j 4 # # # * $ * * # @ . 1.",
"J jXSXSXSXSXSXSXSXCXmXvXFXSX5 kXlXe.x k h v.D.#XbXAXkX< . $ `.MXMXbXbXNXMX`.+ + 1 kXAXbX.X9.g M t.,X,X1 hXhXhXhXhXhXhXhXhXfX)._ ",
"%.SXMXMXMXMXMXMXMXvXtXvXAXnX4 '.zXzXM.4.h t.a.8XtXMXMXk.~ y.MXMXMXMXbXMXCXVXh.F h.CXMXtX[.M g M.>XzX>X1 CXcXcXnXnXcXcXcXkX5X`.{ ",
"%.FXyXeXeXtXeX9X=X&X&X=X=X#X$ F >X<X<XS.k v.D.8X8XqXqXmXmXMXMX0Xb.b.b.m.v.zXCXVXVXqXqX<XD.4.M >X,XZ.n b 3X^.^..X1X.X^.^.^.W.[ R ",
"%.FXyX&X&X=X&X&X=XeXyXyXeX%X-X1 ' S.Z.f.g 4.t.A.t.A.D.<XA.m.qXb.c c m U x u.qXu.XXA.A.S.g.M x z.Z.[ F N.;X;XQ.B.R.^.^.^.W.c.' L ",
"&.ZX6X&X&X9X&X&X=XyXtXtX9X*X|.l.b j S l , z m g.q.r.r.D. Xt.>Xw.; 1 c 0.3.8.D.r.D.r.S.4.U l h N b D n.j.!.^.^.R.b.Q.R.B.d.Y C > ",
"&.SX0X&X&X=X&X&X&X=X&X&X&X=XOX' J 6 2 t 5 5 S s.e.S.r.r.<Xt.S.M , ; , m 4.r.S.r.S.g.q.Y l 6 2 t &.x.2X:XQ.b.Q.Q.W.b.[ F 9 > @   ",
"&.SX0X&X&X&X&X&X&X&X&X&X&X&X#X' _ mXMXBX1.+ b I U q.t.4.g.4.S.4.4.4.3.x 4.6.A.6.4.4.z R p _ V.d @ N.2X^.^.Q.Q.T.T.j.k.E.x.D $   ",
"&.CX6X#XOX#X=X#X=X9X&X7X7X&X#X' ;.yX+X.XxXV.A : c n 0.M q.M 4.q.g.M.S.g.g.2.4.4.M U l 0 *.hX# . o x.;XT.Q.Q.W.W.T.T.T.Q.:X;Xj.5 ",
"_ nXXXi.i.m.OX$X=X9X*X7X7X$X|.' ;.yX+X!.`.jX9 + + 1 l P T P U 4.q.4.s.4.s.M m m S , + K BXl.] 9 @ h.R.B.R.b.j.j.b.W.W.R.b.W.B.A ",
"5 T.|.6XrX}.[.*X*X*X*X*X$X$X@X' ;.vX;X!.gX) 8 8 % $ + t 6 l l z z k z z N l z b 3 O 4 o _ mX:X] > _ j.d.d.w.j.k.B.W.W.R.R.j.T t ",
"> t.OX9XyX#Xi.#X*X*X*X*X#X|.}.I F ^.N.'.W } /.K.Q 7 O $ : - + $ + . @ # @ @ 2 : O   & f Q *.E.[ 4 p -.I ' k.Q.j.B.W.W.W.W.n.T t ",
"# e.OX%X%XOXt.{.*X$X$X*X@XA.' 4 o A L Q } /././.J.7 < 0 0 < $ % = = 7 & = o 3 3 2 o Q ,.].Q 1.[ 4 9 L d.n.!.Q.h.B.!.W.W.W.R.T t ",
"o I t.[.m.m.' c.[.[.[.[.m.[ 5 .   @ @ ) J./.P./.} 7 b d.n 1 % i 7 7 7 7 7 $ S P N $ 8 J.].! *.I > r H h.!.B.n.N.N.k.Q.;XB.d.F 6 ",
"  $ 5 S S S > 6 S S S S S 4 .       *.% ~ P.G.G.} 7 c f.f.I % Q } ! ! ! W < s.s.T + 8 ) } W 7 +.o * r T [ T [ d.R L ] -.] R 0 $ ",
"=.= f =.=.=.=.=.=.=.=.=.=.=.&.#     0 8 | F./ } W 7 b 0.M.I 7 } K.J.K.H.) < j.f.T - % W v ~ < s     > Z Z Z Z p p p p p p p * i ",
"dXdXSXKXKXKXKXKXKXKXKXHXKXKXHX;.. ;.` ).1Xy.^ ~ W % j s.0.m 7 } K.K.K.J.) $ U 0.I - 0 1 y.^.:.C s     . o .   # i p p i i i i 1.",
"f BX2X2XrXrXrXrXrXrXrXrXMXMX6Xw.9 ;.x.3X2X1Xn.I $ . , z k 1 % } } } ) } ) $ c n j ; I E.2XlXVXT %.@ 0 ] <.;.@ ;.nXnXcXcXcXcXkX_ ",
"%.DX.Xt.}.6X6X6X6X6X6X6XvXvX@Xw.A l.kXmXrXmX,XI O + T s.d.:.% 8 ~ ~ ~ ) < b d.[ -., j !.vXbXmXN._ A E.;XkXBXp V.MX5X+X.X+X1Xk.F ",
"%.HXvX[.8.[.&X6X6X6X6X0XtX0XXXw.&.9 nXMXbXmXzX_., : [ U [ l.< b h.h.l.:.: -.z.P P l I lXyXyXMXlX9 z.-X-XR.] > <.mX.X^.T.^.T.] Z ",
"%.HX6X#X}.8.[.@X#X@X@X@X@XXX[.U &.0 `.mXmXmXzX_.1 - Y S l L > 5 L L ] +.$ +.>.N B l I zXbXyXrX!.0 d.Z.!.N.' > ;.mX+X.XT.^..X{ A ",
"%.ZX.X}.6XXX8.8.t.e.e.t.t.t.8.S K 6 z.zXzXzXlX' , + N Z a u w q u q w w q u e e e 2 l Z.mXmXqXB.+ ] w.j.j.d.$ ;.vX2X+XT.T..Xw.A ",
"%.FX0X&X&X9XXX' C 6 F ' ' U Y 5 5 :.I _.>X_.z.b O = w w  . .O.#.#.#.#.#.#.O. . .w * 3 [ >X,XN.I J $ C A t 5 . ;.vX2X+XT.T..Xw.A ",
"&.FX0X&X7X7X7X2X:X] 4 $ 4 9 9 o 5 1X:.F F F 5 @ q o.O.#.uXuXaXsXsXsXsXsXsXuX#.#.O.u o : j n S L #   o $ $ o   ;.vX2X^.T.T.T.d.Z ",
"&.FX0X7X#X@X#X7X0X#XB.C ).cX:X] 9 :Xh.l.<.<.d &  .#.uXaXiXiXiXpXaXaXaXiXiXiXiXaXpXo.q e L ;.C.:.@ F h.x.h.] @ K `.N.b.b.b.W.[ Z ",
"%.SX0X@Xc.B.>X$X*X*X}.c.2XtX@Xj.9 h.d.j.~.R.`.q O.#.aXsXpX#.O.O.#. .O.O.#.#.sXsXuXO.q (.!.h.w.A 4 N.5X2X;X;XF . A ;.D A h.h.F $ ",
"4 -X7X[.>XmX0X$X*X7Xm.|.$X%XOXj.4 R -.c.;X_.).q  .#.#.uX#.O. .w w q u w  .#.#.uX#. .q '.!.B.[ F 5 j.b.W.^.;XN.4 ).5X] D `.3Xd.5 ",
"> m.$X$X9X0X9X*X*X#Xc.|.%X%XOX0.$ C [ W.;X;X_.X w u  .$. . .q 1.G K C.q u  . .o. .w & '.!.!.{ A 4 h.n.B.R.W.h.9 { N.x.F F d.T 6 ",
"$ m.#X*X*X*X*X*XXXt.0.|.%XOXA.T # t d.B.^.^._.@ e G %.u q & =.L * 4 d.V.X q u X.X.= @ `.!.B.] r > d.B.B.k.w.I 4 R h.z.A Z A L r ",
"* c.[.{.{.{.{.[.t.' c.OX#X{.0.4 @ t T h.z.j.).+ A S @.Z = = L r o * A [ i # a a a r + '.N.-.A 4 # { z.d.[ ] r o Z T -.Z C S S 4 ",
"# A U e.t.e.e.0.Y j.#X{.A.t.6 @   > t H R H -.O 6 N N l . >.r #   o r A <.o y y r p O <.H H r o   r R R Z t >   r H r Z A C 4 # ",
"dXK 4 6 9 5 5 5 4 9 A C 6 4   =.dXf @ > > * r %.* @ O @ K 4 o ..1...o > 4 +.@ * *   i d * *   ..dX..* r * @ o   o #   o * # o =.",
"PXjX....f f f f f f f f f f ..jXPXdXf ....f ..%.s = 4 i =.....jXPXjX......=.a e e i =.........dXPXdXf f f f f f f f f f f ....jX"
};
