/* XPM */
static char *_174d9e823a5468dcc1e7e1f0d5445d7wstwji0Mga3f1oMg[] = {
/* columns rows colors chars-per-pixel */
"64 64 211 2 ",
"   c #1C1D2B",
".  c #131829",
"X  c #8E846F",
"o  c #636563",
"O  c #161B2D",
"+  c #181D33",
"@  c #10121E",
"#  c #8A8572",
"$  c #171926",
"%  c #0C0E1D",
"&  c #25293A",
"*  c #2C364E",
"=  c #847E6F",
"-  c #817D71",
";  c #1C2133",
":  c #53565D",
">  c #1E2338",
",  c #141B34",
"<  c #21222C",
"1  c #8F8A71",
"2  c #998E75",
"3  c #70706B",
"4  c #070A1B",
"5  c #5D5F63",
"6  c #A39C80",
"7  c #040616",
"8  c #7E7E77",
"9  c #686461",
"0  c #757369",
"q  c #918670",
"w  c #8F8C78",
"e  c #0E1425",
"r  c #7D796F",
"t  c #2B2C33",
"y  c #323C53",
"u  c #999179",
"i  c #141522",
"p  c #383D49",
"a  c #7C7869",
"s  c #222534",
"d  c #626062",
"f  c #33343C",
"g  c #1E263C",
"h  c #2A2E3B",
"j  c #4E5257",
"k  c #59595C",
"l  c #313236",
"z  c #2B3449",
"x  c #918876",
"c  c #8E8574",
"v  c #03030D",
"b  c #55585A",
"n  c #847F74",
"m  c #6B6B63",
"M  c #6E6E66",
"N  c #232840",
"B  c #918A7D",
"V  c #74726E",
"C  c #080C23",
"Z  c #9F9784",
"A  c #B0A68D",
"S  c #5E5D5D",
"D  c #10162F",
"F  c #868270",
"G  c #8D8271",
"H  c #6A6A69",
"J  c #585C61",
"K  c #7A766F",
"L  c #898778",
"P  c #777974",
"I  c #7E7A74",
"U  c #E4E3DC",
"Y  c #484E5A",
"T  c #8A8172",
"R  c #9F9475",
"E  c #89816D",
"W  c #6D695E",
"Q  c #292F46",
"!  c #AEA38A",
"~  c #272D41",
"^  c #2B3140",
"/  c #686767",
"(  c #313748",
")  c #41424E",
"_  c #4E4E50",
"`  c #9B917F",
"'  c #434141",
"]  c #222C45",
"[  c #625F5A",
"{  c #968D7A",
"}  c #847D69",
"|  c #343C4D",
" . c #4B525F",
".. c #74766F",
"X. c #868274",
"o. c #1D1D22",
"O. c #2B2A29",
"+. c #9C947B",
"@. c #2F3342",
"#. c #958B74",
"$. c #26314C",
"%. c #726B5E",
"&. c #4C4F56",
"*. c #A5997D",
"=. c #656970",
"-. c #A1977A",
";. c #1E2741",
":. c #504B47",
">. c #646868",
",. c #817A6C",
"<. c #3C3D40",
"1. c #303A4F",
"2. c #404555",
"3. c #7E7D6B",
"4. c #5E6268",
"5. c #27282F",
"6. c #988C6D",
"7. c #43495B",
"8. c #898277",
"9. c #85837D",
"0. c #3C414B",
"q. c #63646A",
"w. c #49484F",
"e. c #6B6C6E",
"r. c #0D122A",
"t. c #18161C",
"y. c #344157",
"u. c #737374",
"i. c #8B866B",
"p. c #8E8678",
"a. c #A99C78",
"s. c #484D54",
"d. c #6E7171",
"f. c #343843",
"g. c #16203B",
"h. c #958F82",
"j. c #AAA48E",
"k. c #394052",
"l. c #747164",
"z. c #9A9372",
"x. c #51525E",
"c. c #757B6E",
"v. c #A9A283",
"b. c #3D455D",
"n. c #43484E",
"m. c #474746",
"M. c #6E6966",
"N. c #A49973",
"B. c #565552",
"V. c #A99D80",
"C. c #B3AD92",
"Z. c #444B60",
"A. c #919170",
"S. c #464856",
"D. c #B3A892",
"F. c #655F51",
"G. c #5D584D",
"H. c #AE9F72",
"J. c #5E5C54",
"K. c #666657",
"L. c #ACA986",
"P. c #756B65",
"I. c #81817A",
"U. c #38363B",
"Y. c #0F0E13",
"T. c #E0DFD3",
"R. c #A08E7B",
"E. c #3A4159",
"W. c #5A5F6C",
"Q. c #908A67",
"!. c #B4A582",
"~. c #969583",
"^. c #424C55",
"/. c #7A7365",
"(. c #A59C87",
"). c #8E8C84",
"_. c #6D6357",
"`. c #7E7760",
"'. c #A4A089",
"]. c #686059",
"[. c #B9AC8D",
"{. c #B7B197",
"}. c #545B66",
"|. c #74757A",
" X c #BEB693",
".X c #3B4656",
"XX c #53534A",
"oX c #26231F",
"OX c #6A6F79",
"+X c #888063",
"@X c #B5AB88",
"#X c #6D6661",
"$X c #9C9669",
"%X c #4B483C",
"&X c #414038",
"*X c #BDB69B",
"=X c #C5BE99",
"-X c #B1A47C",
";X c #A09A91",
":X c #ACA279",
">X c #BFB782",
",X c #ABA695",
"<X c #D2CAA5",
"1X c #8D826C",
"2X c #D7D2B5",
"3X c #39362F",
"4X c #B5B2B0",
"5X c #D9D7D1",
"6X c #BAAF79",
"7X c #C2C0A7",
"8X c #CCC7C2",
/* pixels */
"6 v.-X+.` ,.6 <X=X-.i.2 q a 3.o.K.<X>X:X6 c z.>X X'.,.Q.$X$XQ.%XO.6X$X>XH.`.+X6X>XA.Q.H.N.$XZ ' &X>Xa.!.a.Q.+XH.6X6X$XR :X$XA.G.",
"Q.q 2 x B 0 I 9 l.R 1X6.1 m j @ XXv.# #.2 -.1 0 j V u N.R /.n.t oXQ.N.a.2 E 1 3.S F 1 `.2 3.b l oXN.+XN.R #.`.`.:.`.6.R a.+XXX' ",
"$X6.0 n # r 5 Q ) #.6.R E k | @ &X~.# B 8.- H Y & S T R 2 [ ( ^ oXz.%.c K K M ^.* / w # 1 o ^.5.oXV.%.} ,.n r w.N S u 2 #.%.f.h ",
"[ 0 V d o H k q.&.M.1 a #Xk.;.% 5.0 n 3 e.=.J H d d M.0 l.J.f.$ O.a d o M k b M >.j M K 0 J z O o.9 ..c.S e.P k J >.V [ ,.9 ( + ",
"0 H X.- 3 - r / / 5 m d x.| g.7 l V V V M V 8 3 o o o m w._ f % O.S H o M a F - o : q.&.Y  .$., o.e.e...r L ~.- K &._ M b s.Q D ",
"k : ) ) x.3 0 3 k S.M d ( k.g.7 l J 2.z k r 3 q.s.: H l.f f f.i < &.s.2.0.0 0 o Y 5 P =.| * ] r.o.o p Q Y 5 3 H : x./ / f.^ g g.",
"2.7.;.g 7.2.& p : x.k ) > ] * % <  .Q g.| ^.g 1.Y #XW w.  O @.O   .Xz g y Y z Q Z. .Y 7., ;.* O i S.7.;.$.b.> N * =.&.n.> + y N ",
"y b.b.* .Xz , z 7.N g.Q ] z 1.%   k.y.* 7.Y > Q 7.^ ; & ~ ~ k.O e 1.y.] y..X;.;.Z.z g.] g.;.Q   @ 1.Z.1.$.y.] ] 1.* , ~ ( N 1.z ",
"N ] b.y.$.y 1.k.1.E.Q y.( ~ z % % N y.y y y 1..X7.y ] .X.X.X| $ 7 & k.( y y y E.1.z $.1.y.* N $ 4 ] b.E.y b.y y.Z.y.$.* | ] $.~ ",
", g.y 1.z z g | 1.z N * z g e 7 7 + 1.$.$.$.g * y y Q > z ( i v v i h ^ Q Q g @.| | ] z * ] + 7 v r.y y.y y.] z 1.* ;.g y 1., C ",
". % . . . e 7 i e @ % @ @ 4 v v v 7 i . . . 4 @ i i % 4 % 4 v v v v i $ $   i i i . e e % 4 v v v 7 C e . . 7 % e % % 4 @ i 7 h ",
"f [ #XM.l i S 9 9 9 9 [ [ J.O.v O.0 ).).B.t.B.W W W %.W W %.%XY.t.W T F M.  :.P.%.P.P.P.P.P.:.v t.M.I I <.5.#X%.%.%.%.%.].F.O.<.",
"M.! ! A B.f '.! ! D.D.Z Z ` # oX:.j.*X*X- o.c A A A ! ! j.A w O.&X'.[. XZ N 0 A ! A A A C.{.h.l <.,XC.{.B.m.C.D.! ! A D.Z B /.%X",
"u.n n p.w.s 0 8.B B B h.h.h.w l ' 3.w Z 9 i a +.+.+.+.+.{ p.r U.l M X u r ; k w w w w w L - m <.f K h.I <.t / P I L L L L I - J.",
" .p 5 o ^ + 5 u.u.|.|.|.|.q.s.<   <.e.>.) C Y d.8 9.).).8 e.w.<   ( B.k n.. j L w w w L 3 b n.t   &...>.h & d.8 I.9.I.P 3 o J ' ",
"o.% p ~ + + 5 e.=.=.=.}.Y | ; 4 4 O f.^ + C Q k.}.W.W.W. ..X> % 4 r.& & O C 0.q.o o >.k p @.; C C + N N D + W.=.OXOXW. .1.* g.p ",
"5.< ;       h @.^ h s <   $ $ i i $ i i @ i ;   < < <     $ i @ @ t.$ o.$ @ e . < < < <     $ @ % i $       t l l l t < < < $ $ ",
"x.n 6 *.*.*.-.-.-.= W u u u { { z.#.1 u +.{ O.5.x V.6 +.+.u +.+.u u u 2 #.{ U.< # 6 6 6 +.2 u R %.J.u -.*.*.R R 1X`.R R R R } ' ",
"S 9 # R R z.z.z.z.1 T #X].r 9 0 Z 6 Z B ].,.t h X.u { T K - { +.+.+.u x 8.{ U.< ,.R R +.X %.l.a.} XX= #.2 2 2 #.1X} 2 2 #.#.#.].",
"M r M.F 1 1 1 1 1 1 # F F T F X.L L 8.9 9 e.< O d F T T T T c G x { w p.X.I h   M.q q q X E 1Xq X 0 / l.a E X X X q q X q X q [ ",
"m X.F # w # 1 1 x 1 # # # # 8.X.- n n - I =.O O M # T T = T c T c p.c # X.4., D k = E # # F E X c ,.m a ,.} X X 1XX X 1XX X ,.:.",
"k e.d.>.e.>.: H c.3 o 5 5 5 5 5 5 4.4.4.4. .r.+ 5 3 H 5 k J q.d d d o e.>.7.r.r.j M H >.5 5 d o o m M m M S k / 3 M.M.m m m B.t ",
"> & ~ & & & , , h & s ; ; ; O D O ; s s s O C . s & s > > ; , D D > & & & , 4 Y.< & & > + ; + D , & h h h > , N ~ N g > > > D + ",
"w.Z D.D.D.C...Q h.A ! ! V.-.W @ ' v. X X{.r #XV.@X@X@X[.@Xv.S D h ~.C.C.'.' <.= (.(.(.(.(.j.o . t ~.*X{.[.B & - ! ! '.'.j.j.S ) ",
"/.-.*.a.a.V.W   #.-X-X-Xa.a.1 o.G.v.V.V.u w } X a.-.N.-X!.6.a t m.-.a.N.R `.i.z.N.a.:X:X-X-.m 0.U.-.:X:XH.+X; /.N.N.N.N.N.z.E %X",
"%.a M ,.+.T _ O 3.= x 2 x T a o.:.= 8.# 0 3 a W /.E X 2 -.m 5 t <.0 A.1 a _ 3 l.c.+.+.z.A.K.j p <.a i.Q.+X[ + 9 l.} Q.Q.2 W J ' ",
"f. .^. .d.q.Q D / u.8 8.8 3 k @ U._ P 8 &.( K ,.9 a # - : ^.: ; ( 2.P P 4.g J 8 c.3.c.3 _ p 7.^ & ) [ = b ( , j o l.a 3.9 | E.~ ",
", $.y.y y y g.r. .d.u.|.u.q.( C . z Y S.~ g S F n = - s.1.y.1.D ; N Y Y ( D ^.c.c.c.c.s.( z * + e g ^ p ( g C w.c.r 3.5 * * b.Q ",
"$ % i i @ @ @ Y.< t t t t < % 7 4 . ;   O O h f.f.f.@.~ ;.g g.r.4 . + + , g.g ^ ^ ^ 1.] * * ] C 7 r., , + D C & 0.0.p ] $.$.g.z ",
"3XF._.p.` R.R.` { x x x B d e 4 W -.6 6 ` ~.~.h.{ B 0.>.3.K.> C XXz.6 6 6 6 6 Z L K 2..XI.d.& 7 O r V.6 *.*.6 Z ` B x.b.=.OXN C ",
"a o w.,.-.V.V.V.*.V.Z +.*.B _ . = a.H.a.*.*.-.-.*.-.8.a z.z.B.e %.H.H.H.H.H.H.N.*.! w d - Z M   <.v.!.!.!.!.!.{ c D.).V 8 ).H < ",
"l.n V &.j F 6.1 - p.= E 1 1 B.i %.6.6.6.q q q G E } #.X q X W O [ 6.6.6.6.6.6.X { L G n p.q } f <.+.{ u ` ` 2 1 n I B - n I K l ",
"W u u o : o E G x # T X X } _ e W q X X G G c X X X G G G T 9 O [ q q q q q q q c n c x 1 X /.t U.V x.q.|./ } 2 #.E X q X } M.l ",
"M u u x = S ,.E = T # T T 0 0.e [ # T 0 - X.X.T G G G G c = : O S q T l.= c G T 8.9.8.8.8.n d ; U.X.K 7.b.J ,.G G E E 1X1X} S t ",
"9 # 3.[ = = r 0 l.,.F = } M f.@ [ F F d ..X.F - K K T c G r 7.D S G T 9 r X = r P 8 8 8 I ..k   l X.8 q.W./ I I K V I - = r k s ",
"j 3 H d K - 3 s.&.d o o o b ; 4 j c.c...n X...j 0.J >.o 9 o ^ e &.3 M M.r r V J ) : 4.=.=.J p e 5.H ..3 8 8 8 5 ( k.: b 9 9 ) i ",
"f.w.w.k ..: 0.+ .   ; s s ; C 7 h n.f.k K s.h $ e O + + ; s 4 7 h p p _ I.j p ; % . + > ; O C 4 O f m.<.P.V 0., C D , + s s % < ",
"S (.;Xk : h C 4 <.:.:.:.m.f % 5.M.` ` d n.f.7 Y.' m.w._ w.<.  o.k V h.S S @.r.C U.:.:.:.m.' t % [ T (.T G.&X> C > w.w.) ) ) f t ",
"5 h.K T x x & O B j.j.j.j.~.'   V ` ! Z h.I.^   ` D.D.D.D.Z &.$ d B Z 8.8.9.w.. a ! ! A ! Z M t.J.h.8.p.G 2 I O ) (.,X;X;X;X9.5.",
"^.P o ` x M h O H 8 I.9.I H l $ : J 3 ` ).8 _ . 3 ` h.L I.e.( @ 5 d.H B Z 3 j O 5 P K 9.9.P : @ f k / I (.p.o . h 3 I.L n V 5 f ",
";.| J L M n.h e p e.P 3 S 2.; 4 0. .Y q.>.4.p e j 3 V >.4. .h % p Y 4.8 I.: ( D S.5 H ..3 &.| e & | ) e.).4.| e s x.q.I 9.W.E.s ",
"r.g.0.j n.@.; e z j J j 0.Q r.4 & ^ ( x.s.| O 4 @.Y : Y 2.h . 7 , ] k.2.2.z + r.~ k.Z. .7.] g.4 r.g Q 2. .$.] C > 2.7.Y Y y ;.$ ",
"5.$ $ $ $ $ 4 % $ $ O O O . 7 7 t.< s     O % % O         i 7 7 i <   < <   % % i         $ % 7 %   < < <   . 4 i $ $ $ $ . % ) ",
"2 ! V.V.*.u ' 9 p.w w w w = l t.} A ! ! (.x :.].{ { #.x G ,.' @ _.[.@X!.!.*.t G.*.R.R.R.R.R.G.@ J.[.[.[.[.!.G.l { R.R.R.2 R.].$ ",
"2 !.*.v.a.R X a 3 ~.6 6 u T %.O.a Z ` Z 6 6 ` B M 8.{ ` #.x ,.U.[ 6 6 6 6 -.f _ h.~.` u (.` w ' B.j.;X,X,Xv.G.l - # ` ` 2 +.c :.",
"9 q.H x 2 6.2 n u.).{ { x F a O.9 =.=.n #.u 2 # o - L w X X T <.m...V w A.F f 0.X.p.# X.X.,.F m.' = d.P X.E XX5.P.= # # # # c F.",
"d W.u.B { #.{ B B { w x x T /.5.S =.4.= q q c 1 1 X i.i.Q.i.3.f :.c.d - w F f ) w 1 # X.n r F ' ' ,.d 0 ,.E XXt = G G # # c - w.",
"j Z.Y >.0 o / p.x x x p.L - _ $ b 5 x.9 3.3 / - c c T F F r : ; p s.S.J V m h 0.- - - I 8 P >.s U.J | x.H ..) t = c c # # X.q.& ",
"z * $.y b.1.E.=.u.P P u.4.W.~ C p b.E.Z. .Z.2.d P 8 P =.: Z.* e > * b.Z.7.2.O ( OXOXOXOX=.J S.. ; z * E.Z.Z.N > e.u.u.V u.}.E.+ ",
"  + + ; > > + > ~ ^ ^ & > > e 7 e ; ; ; + + O > ~ @.@.& + ; e 7 % O ; > + . 7 e ] * * Q ; D C 7 4 r., , , , C C N N N N N g., . ",
"m.K.K.K.K.K.m.Y.&XXXo.B.G.t.%XF.F.F.F.F.F.F.3Xv &XF.o.G.G.o.:._._._._._._.].O.v ' #X< :.F.o.' [ J.J.[ [ [ ].:.@ t d.t ' k h   |.",
"W L.L.L.L.L.M @ W '.t d 9.t X.C.L.L.v.v.v.@X`.Y.W A U.m L f K ! ! ! ! ! ! ! /.Y._.Z U.%.a m.r v.6 6 6 6 6 L.x o.m.,Xw.d u.&.: e.",
"B.i.A.A.A.A.XX@ <.) S.Q * ~ _ K L p.# # w B :.Y.<.B.( | ( & : d.P L B B B B ].t.<.n.p j 0.h &.M 3.w # i.i.1 [ i 5._ ) p & p @.< ",
") a A.A.A.a ^ % s Q 2.Z.y ;.| |.9.9.9.9.9.u.; 4 s & b.y.* $.( }.u.8 I.9.9.d.h @ + N y 7.* ;.z 4.K X.n = } F m.@   s @.0.@.^ s   ",
"N w.J.J.J.p + Y.$ r.D + & > + ( j k k k k 0.. 4 . ; g + , , + p s.: J J J ^.$ Y.e D D , ;.;., ( s.x._ _ _ _ < 7 . @ @ O s s . $ ",
"Q & l l l l 5.o.t f f f f f o.v v t.O.O.O.5.< o.t f f f f f t % v t.t t t t O.o.oXl l l l l 5.% 4 $ 5.t t t h s   ^ @.f.f.( & s.",
"f.4XT.5X5XT.8X4X5XU U U U U ).Y.t.8 T.T.T.U 5XA 2XU U U U U 4XoXY.8 T.T.T.T.2XC.7XT.T.U U U 7XO.% |.T.U U U U 8X4XU U U U U 8XW ",
"'.2X X*X{.j.{.<X<XD.(.A C.C.j.3XJ.2X>X[.C.L.7X=X=X{.{.C.v.v.z.%X%X<X X=X=X{.*X=X7X{.'.j.C.j.,XXX' 2X=X XC.L.! A  X*Xj.L.L.@X'.%.",
"1 a.Q.A.1 /.} *.u i.} i.+XK.S o._ *X6.+.~.0 r r p.# ,.I K m F.3X%X X3.2 2 /.a h.8 I.0 a i.l.M &X3X[.2 a.6.`.%.} 1Xq = } E = J p ",
"l.3.m a # w H k.S.- 3.F F S 2.i m.;X].p.~.I - &.@.S n X.X./ n.< O.8 >.L w r d.s.f.M.= = 1 m }.l oXc M = = h.X.S ~ b c R } >..X@.",
"b ..3 m 9 k b &.b 3 [ 0 c.j Q % l u.H d / d k b n./ r l.0 >.|   O.u.d.d.4.5 5 w.B.W I / 0 >.y.s o.V d 9 M e.B.b w.o a ,.V >.z N ",
"2.H c.c.0 ].l.W m 8 I / j S.N % s S d.5 k ..o o c.../ B.&.J & 4 t.b P 8 o ..P m 3 P V b :  .] e < d u.V m m 0 8.P.K I H 4.x.] O ",
"Y W.&.n.[ 1 #.m q.j e.S.~ | N 4 s : j s.5 8 ..o H b : 5 z 0.h % o.b j j b 8 r m 3 _ _ >.^.y ;.+ i ) 4.: j P I.H 5 q.: d.S.Q ] . ",
"x.7.> > ) 5 o Y  .x.W.2., * N 7 s }.^ g.^.b J : p 5 >.( , ~ @.@ $  .k.~ ^.: j <.j  .}.j > * $.. i  .k., Q Z.E. .Y }.}.4.^ , $.> "
};
